<?xml version="1.0" encoding="UTF-8" standalone="no"?>
<svg
   xmlns:dc="http://purl.org/dc/elements/1.1/"
   xmlns:cc="http://creativecommons.org/ns#"
   xmlns:rdf="http://www.w3.org/1999/02/22-rdf-syntax-ns#"
   xmlns:svg="http://www.w3.org/2000/svg"
   xmlns="http://www.w3.org/2000/svg"
   xmlns:sodipodi="http://sodipodi.sourceforge.net/DTD/sodipodi-0.dtd"
   xmlns:inkscape="http://www.inkscape.org/namespaces/inkscape"
   version="1.1"
   width="16in"
   height="6in"
   id="svg1268"
   viewBox="0 0 1536 576"
   sodipodi:docname="ALL_EXAMPLES.svg"
   inkscape:version="0.92.3 (2405546, 2018-03-11)">
  <metadata
     id="metadata1274">
    <rdf:RDF>
      <cc:Work
         rdf:about="">
        <dc:format>image/svg+xml</dc:format>
        <dc:type
           rdf:resource="http://purl.org/dc/dcmitype/StillImage" />
        <dc:title></dc:title>
      </cc:Work>
    </rdf:RDF>
  </metadata>
  <defs
     id="defs1272" />
  <sodipodi:namedview
     pagecolor="#ffffff"
     bordercolor="#666666"
     borderopacity="1"
     objecttolerance="10"
     gridtolerance="10"
     guidetolerance="10"
     inkscape:pageopacity="0"
     inkscape:pageshadow="2"
     inkscape:window-width="1533"
     inkscape:window-height="845"
     id="namedview1270"
     showgrid="false"
     inkscape:zoom="0.52706144"
     inkscape:cx="599.11987"
     inkscape:cy="269.47702"
     inkscape:window-x="67"
     inkscape:window-y="27"
     inkscape:window-maximized="1"
     inkscape:current-layer="svg1268"
     units="in" />
  <g
     id="Layer1001"
     style="stroke:#000000;stroke-width:3;stroke-miterlimit:4;stroke-dasharray:none;stroke-opacity:1"
     transform="rotate(-90,-51.69938,625.20809)"
     inkscape:transform-center-x="-38.201572"
     inkscape:transform-center-y="435.49792">
    <path
       d="m 504.3546,740.2059 c 0,-4.3622 -3.7922,-7.8735 -8.5034,-7.8735 H 30.9699 c -4.7112,0 -8.5048,3.5113 -8.5048,7.8735 v 125.9839 c 0,4.3622 3.7936,7.8735 8.5048,7.8735 h 464.8813 c 4.7115,0 8.5034,-3.5113 8.5034,-7.8735 z"
       style="fill:#ffffff;fill-rule:evenodd;stroke:#000000;stroke-width:3;stroke-linecap:butt;stroke-linejoin:round;stroke-miterlimit:4;stroke-dasharray:none;stroke-opacity:1"
       id="path23"
       inkscape:connector-curvature="0" />
    <path
       d="M 479.2989,760.6777 V 845.718 H 224.0677 v -19.8443 h -13.5513 v 14.1738 H 67.3656 V 825.8737 H 53.1933 V 780.5191 H 67.3656 V 766.3467 H 210.515 v 14.1724 h 13.5527 v -19.8414 z"
       style="fill:#ffffff;fill-rule:evenodd;stroke:#000000;stroke-width:3;stroke-linecap:butt;stroke-linejoin:round;stroke-miterlimit:4;stroke-dasharray:none;stroke-opacity:1"
       id="path25"
       inkscape:connector-curvature="0" />
    <path
       d="m 487.3467,747.9218 c -2e-4,-2.3482 1.9029,-4.2519 4.2512,-4.2525 2.3485,-3e-4 4.2525,1.9037 4.2525,4.2525 -6e-4,2.3482 -1.9043,4.2511 -4.2525,4.2511 -2.3477,-5e-4 -4.2506,-1.9034 -4.2512,-4.2511 z"
       style="fill:#ffffff;fill-rule:evenodd;stroke:#000000;stroke-width:3;stroke-linecap:butt;stroke-linejoin:round;stroke-miterlimit:4;stroke-dasharray:none;stroke-opacity:1"
       id="path27"
       inkscape:connector-curvature="0" />
    <path
       d="m 487.3467,858.4736 c -2e-4,-2.3488 1.9038,-4.2526 4.2526,-4.2526 2.3488,-2e-4 4.2528,1.9038 4.2525,4.2526 -6e-4,2.3482 -1.9043,4.2511 -4.2525,4.2511 -2.3482,3e-4 -4.2517,-1.9029 -4.2526,-4.2511 z"
       style="fill:#ffffff;fill-rule:evenodd;stroke:#000000;stroke-width:3;stroke-linecap:butt;stroke-linejoin:round;stroke-miterlimit:4;stroke-dasharray:none;stroke-opacity:1"
       id="path29"
       inkscape:connector-curvature="0" />
    <path
       d="m 30.9702,747.9218 c -3e-4,-2.3482 1.9029,-4.2519 4.2511,-4.2525 2.3488,-3e-4 4.2528,1.9037 4.2526,4.2525 -6e-4,2.3482 -1.9044,4.2511 -4.2526,4.2511 -2.3476,-5e-4 -4.2505,-1.9034 -4.2511,-4.2511 z"
       style="fill:#ffffff;fill-rule:evenodd;stroke:#000000;stroke-width:3;stroke-linecap:butt;stroke-linejoin:round;stroke-miterlimit:4;stroke-dasharray:none;stroke-opacity:1"
       id="path31"
       inkscape:connector-curvature="0" />
    <path
       d="m 30.9702,858.4722 c 6e-4,-2.3477 1.9035,-4.2506 4.2511,-4.2512 2.3482,-2e-4 4.252,1.9029 4.2526,4.2512 2e-4,2.3485 -1.9038,4.2525 -4.2526,4.2525 -2.3482,-6e-4 -4.2511,-1.9043 -4.2511,-4.2525 z"
       style="fill:#ffffff;fill-rule:evenodd;stroke:#000000;stroke-width:3;stroke-linecap:butt;stroke-linejoin:round;stroke-miterlimit:4;stroke-dasharray:none;stroke-opacity:1"
       id="path33"
       inkscape:connector-curvature="0" />
    <path
       d="m 57.4061,769.0323 a 2.8347,2.8347 0 0 1 2.8347,2.8347 2.8347,2.8347 0 1 1 -2.8347,-2.8347 z"
       style="fill:none;stroke:#000000;stroke-width:3;stroke-linecap:butt;stroke-linejoin:miter;stroke-miterlimit:4;stroke-dasharray:none;stroke-opacity:1"
       id="path35"
       inkscape:connector-curvature="0" />
    <path
       d="m 57.6562,831.6941 a 2.8347,2.8347 0 0 1 2.8346,2.8347 2.8347,2.8347 0 1 1 -2.8346,-2.8347 z"
       style="fill:none;stroke:#000000;stroke-width:3;stroke-linecap:butt;stroke-linejoin:miter;stroke-miterlimit:4;stroke-dasharray:none;stroke-opacity:1"
       id="path37"
       inkscape:connector-curvature="0" />
    <path
       d="m 219.3095,769.1009 a 2.8347,2.8347 0 0 1 2.8347,2.8347 2.8347,2.8347 0 1 1 -2.8347,-2.8347 z"
       style="fill:none;stroke:#000000;stroke-width:3;stroke-linecap:butt;stroke-linejoin:miter;stroke-miterlimit:4;stroke-dasharray:none;stroke-opacity:1"
       id="path39"
       inkscape:connector-curvature="0" />
    <path
       d="m 219.3095,831.4631 a 2.8347,2.8347 0 0 1 2.8347,2.8347 2.8347,2.8347 0 1 1 -2.8347,-2.8347 z"
       style="fill:none;stroke:#000000;stroke-width:3;stroke-linecap:butt;stroke-linejoin:miter;stroke-miterlimit:4;stroke-dasharray:none;stroke-opacity:1"
       id="path41"
       inkscape:connector-curvature="0" />
  </g>
  <g
     id="Layer1011"
     style="stroke:#000000;stroke-width:3;stroke-miterlimit:4;stroke-dasharray:none;stroke-opacity:1"
     transform="rotate(-90,303.52327,751.87524)">
    <path
       d="m 986.2444,882.5681 c 0,-4.7112 -3.7936,-8.5048 -8.5048,-8.5048 H 512.858 c -4.7112,0 -8.5034,3.7936 -8.5034,8.5048 v 124.7241 c 0,4.7112 3.7922,8.5034 8.5034,8.5034 h 464.8816 c 4.7112,0 8.5048,-3.7922 8.5048,-8.5034 z"
       style="fill:#ffffff;fill-rule:evenodd;stroke:#000000;stroke-width:3;stroke-linecap:butt;stroke-linejoin:miter;stroke-miterlimit:4;stroke-dasharray:none;stroke-opacity:1"
       id="path233"
       inkscape:connector-curvature="0" />
    <path
       d="m 969.2362,889.6533 c -3e-4,-2.3483 1.9029,-4.252 4.2511,-4.2526 2.3485,-3e-4 4.2526,1.9038 4.2526,4.2526 -6e-4,2.3482 -1.9043,4.2511 -4.2526,4.2511 -2.3476,-6e-4 -4.2505,-1.9035 -4.2511,-4.2511 z"
       style="fill:#ffffff;fill-rule:evenodd;stroke:#000000;stroke-width:3;stroke-linecap:butt;stroke-linejoin:round;stroke-miterlimit:4;stroke-dasharray:none;stroke-opacity:1"
       id="path235"
       inkscape:connector-curvature="0" />
    <path
       d="m 969.2362,1000.205 c -3e-4,-2.3488 1.9038,-4.2525 4.2526,-4.2525 2.3487,-3e-4 4.2528,1.9037 4.2525,4.2525 -6e-4,2.3482 -1.9043,4.2511 -4.2525,4.2511 -2.3483,3e-4 -4.2517,-1.9029 -4.2526,-4.2511 z"
       style="fill:#ffffff;fill-rule:evenodd;stroke:#000000;stroke-width:3;stroke-linecap:butt;stroke-linejoin:round;stroke-miterlimit:4;stroke-dasharray:none;stroke-opacity:1"
       id="path237"
       inkscape:connector-curvature="0" />
    <path
       d="m 512.8597,889.6533 c -3e-4,-2.3483 1.9029,-4.252 4.2511,-4.2526 2.3488,-3e-4 4.2528,1.9038 4.2525,4.2526 -5e-4,2.3482 -1.9043,4.2511 -4.2525,4.2511 -2.3477,-6e-4 -4.2505,-1.9035 -4.2511,-4.2511 z"
       style="fill:#ffffff;fill-rule:evenodd;stroke:#000000;stroke-width:3;stroke-linecap:butt;stroke-linejoin:round;stroke-miterlimit:4;stroke-dasharray:none;stroke-opacity:1"
       id="path239"
       inkscape:connector-curvature="0" />
    <path
       d="m 512.8597,1000.2036 c 6e-4,-2.3477 1.9034,-4.2506 4.2511,-4.2511 2.3482,-3e-4 4.252,1.9029 4.2525,4.2511 3e-4,2.3485 -1.9037,4.2525 -4.2525,4.2525 -2.3482,-5e-4 -4.2511,-1.9043 -4.2511,-4.2525 z"
       style="fill:#ffffff;fill-rule:evenodd;stroke:#000000;stroke-width:3;stroke-linecap:butt;stroke-linejoin:round;stroke-miterlimit:4;stroke-dasharray:none;stroke-opacity:1"
       id="path241"
       inkscape:connector-curvature="0" />
    <path
       d="m 542.1226,908.0065 c 0,0 0,5e-4 0,5e-4 0,2.348 -1.904,4.252 -4.252,4.252 0,0 -6e-4,0 -6e-4,0 3e-4,0 -2e-4,0 -2e-4,0 -2.348,0 -4.252,-1.904 -4.252,-4.252 0,0 0,-5e-4 0,-5e-4 6e-4,-2.348 1.904,-4.2509 4.252,-4.2509 0,0 5e-4,0 5e-4,0 -3e-4,0 3e-4,0 3e-4,0 2.348,0 4.2514,1.9029 4.252,4.2509 z"
       style="fill:#ffffff;fill-rule:evenodd;stroke:#000000;stroke-width:3;stroke-linecap:butt;stroke-linejoin:miter;stroke-miterlimit:4;stroke-dasharray:none;stroke-opacity:1"
       id="path243"
       inkscape:connector-curvature="0" />
    <path
       d="m 785.3224,907.9489 c 0,0 0,6e-4 0,6e-4 0,2.3474 -1.9034,4.2514 -4.2508,4.2519 0,0 -6e-4,0 -6e-4,0 -2.3479,0 -4.2519,-1.904 -4.2519,-4.2519 0,0 0,-6e-4 0,-6e-4 5e-4,-2.3479 1.904,-4.2508 4.2519,-4.2508 0,0 6e-4,0 6e-4,0 2.3474,5e-4 4.2503,1.9034 4.2508,4.2508 z"
       style="fill:#ffffff;fill-rule:evenodd;stroke:#000000;stroke-width:3;stroke-linecap:butt;stroke-linejoin:miter;stroke-miterlimit:4;stroke-dasharray:none;stroke-opacity:1"
       id="path245"
       inkscape:connector-curvature="0" />
    <path
       d="m 541.9145,981.7792 c 0,0 0,6e-4 0,6e-4 0,2.3479 -1.904,4.252 -4.252,4.252 0,0 -5e-4,0 -5e-4,0 2e-4,0 -3e-4,0 -3e-4,0 -2.348,0 -4.252,-1.9041 -4.252,-4.252 0,0 0,-6e-4 0,-6e-4 6e-4,-2.3479 1.904,-4.2508 4.252,-4.2508 0,0 5e-4,0 5e-4,0 -2e-4,0 3e-4,0 3e-4,0 2.348,0 4.2514,1.9029 4.252,4.2508 z"
       style="fill:#ffffff;fill-rule:evenodd;stroke:#000000;stroke-width:3;stroke-linecap:butt;stroke-linejoin:miter;stroke-miterlimit:4;stroke-dasharray:none;stroke-opacity:1"
       id="path247"
       inkscape:connector-curvature="0" />
    <path
       d="m 785.4882,981.2336 c 0,0 0,5e-4 0,5e-4 0,2.3474 -1.9034,4.2514 -4.2508,4.252 0,0 -6e-4,0 -6e-4,0 -2.3479,0 -4.2519,-1.904 -4.2519,-4.252 0,0 0,-5e-4 0,-5e-4 5e-4,-2.348 1.904,-4.2509 4.2519,-4.2509 0,0 6e-4,0 6e-4,0 2.3474,6e-4 4.2503,1.9035 4.2508,4.2509 z"
       style="fill:#ffffff;fill-rule:evenodd;stroke:#000000;stroke-width:3;stroke-linecap:butt;stroke-linejoin:miter;stroke-miterlimit:4;stroke-dasharray:none;stroke-opacity:1"
       id="path249"
       inkscape:connector-curvature="0" />
    <path
       d="m 957.5439,902.4094 v 85.04 H 787.4637 v -14.1738 h -14.1724 v 14.1738 H 547.2275 v -14.1738 h -14.1724 v -56.6924 l 14.1724,-2e-4 v -14.1738 l 226.0638,2e-4 v 14.1738 l 14.1724,-2e-4 v -14.1738 z"
       style="fill:#ffffff;fill-rule:evenodd;stroke:#000000;stroke-width:3;stroke-linecap:butt;stroke-linejoin:miter;stroke-miterlimit:4;stroke-dasharray:none;stroke-opacity:1"
       id="path251"
       inkscape:connector-curvature="0" />
  </g>
  <g
     id="Layer1023"
     style="stroke:#000000;stroke-width:3;stroke-miterlimit:4;stroke-dasharray:none;stroke-opacity:1"
     transform="translate(48.024178,-776.5626)">
    <path
       d="m 325.771,1327.6064 c 4.7112,0 8.5048,-4.0294 8.5048,-9.0351 l 2e-4,-463.8195 c 0,-5.0057 -3.7938,-9.0351 -8.505,-9.0351 H 201.0468 c -4.7111,0 -8.5033,4.0294 -8.5033,9.0351 v 463.8195 c 0,5.0057 3.7922,9.0351 8.5033,9.0351 z"
       style="fill:#ffffff;fill-rule:evenodd;stroke:#000000;stroke-width:3;stroke-linecap:butt;stroke-linejoin:round;stroke-miterlimit:4;stroke-dasharray:none;stroke-opacity:1"
       id="path477"
       inkscape:connector-curvature="0" />
    <path
       d="m 305.9293,1299.2597 h -85.0385 l -3e-4,-425.196 h 85.0388 z"
       style="fill:#ffffff;fill-rule:evenodd;stroke:#000000;stroke-width:3;stroke-linecap:butt;stroke-linejoin:round;stroke-miterlimit:4;stroke-dasharray:none;stroke-opacity:1"
       id="path479"
       inkscape:connector-curvature="0" />
    <path
       d="m 208.1337,862.7248 c -2.3482,3e-4 -4.2519,-1.9029 -4.2525,-4.2511 -3e-4,-2.3485 1.9038,-4.2525 4.2525,-4.2525 2.3483,6e-4 4.2512,1.9043 4.2512,4.2525 -6e-4,2.3477 -1.9035,4.2506 -4.2512,4.2511 z"
       style="fill:#ffffff;fill-rule:evenodd;stroke:#000000;stroke-width:3;stroke-linecap:butt;stroke-linejoin:round;stroke-miterlimit:4;stroke-dasharray:none;stroke-opacity:1"
       id="path481"
       inkscape:connector-curvature="0" />
    <path
       d="m 318.6855,862.7248 c -2.3488,3e-4 -4.2525,-1.9037 -4.2525,-4.2525 -3e-4,-2.3488 1.9037,-4.2528 4.2525,-4.2525 2.3482,5e-4 4.2511,1.9043 4.2511,4.2525 3e-4,2.3482 -1.9029,4.2517 -4.2511,4.2525 z"
       style="fill:#ffffff;fill-rule:evenodd;stroke:#000000;stroke-width:3;stroke-linecap:butt;stroke-linejoin:round;stroke-miterlimit:4;stroke-dasharray:none;stroke-opacity:1"
       id="path483"
       inkscape:connector-curvature="0" />
    <path
       d="m 208.1337,1319.1014 c -2.3482,3e-4 -4.2519,-1.9029 -4.2525,-4.2511 -3e-4,-2.3488 1.9038,-4.2529 4.2525,-4.2526 2.3483,6e-4 4.2512,1.9043 4.2512,4.2526 -6e-4,2.3476 -1.9035,4.2505 -4.2512,4.2511 z"
       style="fill:#ffffff;fill-rule:evenodd;stroke:#000000;stroke-width:3;stroke-linecap:butt;stroke-linejoin:round;stroke-miterlimit:4;stroke-dasharray:none;stroke-opacity:1"
       id="path485"
       inkscape:connector-curvature="0" />
    <path
       d="m 318.6841,1319.1014 c -2.3477,-6e-4 -4.2506,-1.9035 -4.2511,-4.2511 -3e-4,-2.3483 1.9029,-4.252 4.2511,-4.2526 2.3485,-3e-4 4.2525,1.9038 4.2525,4.2526 -6e-4,2.3482 -1.9043,4.2511 -4.2525,4.2511 z"
       style="fill:#ffffff;fill-rule:evenodd;stroke:#000000;stroke-width:3;stroke-linecap:butt;stroke-linejoin:round;stroke-miterlimit:4;stroke-dasharray:none;stroke-opacity:1"
       id="path487"
       inkscape:connector-curvature="0" />
  </g>
  <g
     transform="translate(-562.76932,40.8076)"
     id="Layer1058"
     style="fill:none;fill-opacity:1;stroke:#000000;stroke-width:4;stroke-miterlimit:4;stroke-dasharray:none;stroke-opacity:1">
    <path
       d="m 1692.2823,510.2362 c 4.7112,0 8.5048,-4.0294 8.5048,-9.0351 l 3e-4,-463.8195 c 0,-5.0057 -3.7939,-9.0351 -8.5051,-9.0351 h -124.7241 c -4.7112,0 -8.5034,4.0294 -8.5034,9.0351 v 463.8195 c 0,5.0057 3.7922,9.0351 8.5034,9.0351 z"
       style="fill:none;fill-opacity:1;fill-rule:evenodd;stroke:#000000;stroke-width:4;stroke-linecap:butt;stroke-linejoin:round;stroke-miterlimit:4;stroke-dasharray:none;stroke-opacity:1"
       id="path1204-3"
       inkscape:connector-curvature="0" />
    <path
       d="m 1574.6451,45.3546 c -2.3482,3e-4 -4.252,-1.9029 -4.2525,-4.2511 -3e-4,-2.3485 1.9037,-4.2525 4.2525,-4.2525 2.3482,5e-4 4.2511,1.9043 4.2511,4.2525 -5e-4,2.3476 -1.9034,4.2505 -4.2511,4.2511 z"
       style="fill:none;fill-opacity:1;fill-rule:evenodd;stroke:#000000;stroke-width:4;stroke-linecap:butt;stroke-linejoin:round;stroke-miterlimit:4;stroke-dasharray:none;stroke-opacity:1"
       id="path1206-6"
       inkscape:connector-curvature="0" />
    <path
       d="m 1685.1969,45.3546 c -2.3488,3e-4 -4.2526,-1.9037 -4.2526,-4.2525 -3e-4,-2.3488 1.9038,-4.2528 4.2526,-4.2526 2.3482,6e-4 4.2511,1.9044 4.2511,4.2526 3e-4,2.3482 -1.9029,4.2517 -4.2511,4.2525 z"
       style="fill:none;fill-opacity:1;fill-rule:evenodd;stroke:#000000;stroke-width:4;stroke-linecap:butt;stroke-linejoin:round;stroke-miterlimit:4;stroke-dasharray:none;stroke-opacity:1"
       id="path1208-7"
       inkscape:connector-curvature="0" />
    <path
       d="m 1574.6451,501.7311 c -2.3482,3e-4 -4.252,-1.9028 -4.2525,-4.2511 -3e-4,-2.3488 1.9037,-4.2528 4.2525,-4.2525 2.3482,6e-4 4.2511,1.9043 4.2511,4.2525 -5e-4,2.3477 -1.9034,4.2506 -4.2511,4.2511 z"
       style="fill:none;fill-opacity:1;fill-rule:evenodd;stroke:#000000;stroke-width:4;stroke-linecap:butt;stroke-linejoin:round;stroke-miterlimit:4;stroke-dasharray:none;stroke-opacity:1"
       id="path1210-5"
       inkscape:connector-curvature="0" />
    <path
       d="m 1685.1954,501.7311 c -2.3476,-5e-4 -4.2505,-1.9034 -4.2511,-4.2511 -3e-4,-2.3482 1.9029,-4.2519 4.2511,-4.2525 2.3485,-3e-4 4.2526,1.9037 4.2526,4.2525 -6e-4,2.3483 -1.9043,4.2511 -4.2526,4.2511 z"
       style="fill:none;fill-opacity:1;fill-rule:evenodd;stroke:#000000;stroke-width:4;stroke-linecap:butt;stroke-linejoin:round;stroke-miterlimit:4;stroke-dasharray:none;stroke-opacity:1"
       id="path1212-3"
       inkscape:connector-curvature="0" />
  </g>
  <g
     transform="rotate(-90,816.61747,226.94953)"
     id="Layer1020"
     style="stroke:#000000;stroke-width:4;stroke-miterlimit:4;stroke-dasharray:none;stroke-opacity:1"
     inkscape:transform-center-x="-65.706704"
     inkscape:transform-center-y="203.23236">
    <path
       d="m 974.4129,29.6918 c 0,-4.7112 -3.7922,-8.5048 -8.5034,-8.5048 h -464.883 c -4.7112,0 -8.5034,3.7936 -8.5034,8.5048 v 124.7241 c 0,4.7112 3.7922,8.5034 8.5034,8.5034 h 464.883 c 4.7112,0 8.5034,-3.7922 8.5034,-8.5034 z"
       style="fill:#ffffff;fill-rule:evenodd;stroke:#000000;stroke-width:4;stroke-linecap:butt;stroke-linejoin:round;stroke-miterlimit:4;stroke-dasharray:none;stroke-opacity:1"
       id="path522-5"
       inkscape:connector-curvature="0" />
    <path
       d="m 957.4047,36.777 c -3e-4,-2.3482 1.9029,-4.252 4.2511,-4.2526 2.3485,-2e-4 4.2525,1.9038 4.2525,4.2526 -5e-4,2.3482 -1.9043,4.2511 -4.2525,4.2511 -2.3476,-6e-4 -4.2505,-1.9035 -4.2511,-4.2511 z"
       style="fill:#ffffff;fill-rule:evenodd;stroke:#000000;stroke-width:4;stroke-linecap:butt;stroke-linejoin:round;stroke-miterlimit:4;stroke-dasharray:none;stroke-opacity:1"
       id="path524-4"
       inkscape:connector-curvature="0" />
    <path
       d="m 957.4047,147.3287 c -3e-4,-2.3488 1.9037,-4.2525 4.2525,-4.2525 2.3488,-3e-4 4.2528,1.9037 4.2526,4.2525 -6e-4,2.3482 -1.9044,4.2511 -4.2526,4.2511 -2.3482,3e-4 -4.2517,-1.9029 -4.2525,-4.2511 z"
       style="fill:#ffffff;fill-rule:evenodd;stroke:#000000;stroke-width:4;stroke-linecap:butt;stroke-linejoin:round;stroke-miterlimit:4;stroke-dasharray:none;stroke-opacity:1"
       id="path526-7"
       inkscape:connector-curvature="0" />
    <path
       d="m 501.0282,36.777 c -3e-4,-2.3482 1.9029,-4.252 4.2511,-4.2526 2.3488,-2e-4 4.2528,1.9038 4.2525,4.2526 -6e-4,2.3482 -1.9043,4.2511 -4.2525,4.2511 -2.3477,-6e-4 -4.2506,-1.9035 -4.2511,-4.2511 z"
       style="fill:#ffffff;fill-rule:evenodd;stroke:#000000;stroke-width:4;stroke-linecap:butt;stroke-linejoin:round;stroke-miterlimit:4;stroke-dasharray:none;stroke-opacity:1"
       id="path528-6"
       inkscape:connector-curvature="0" />
    <path
       d="m 501.0282,147.3273 c 5e-4,-2.3476 1.9034,-4.2505 4.2511,-4.2511 2.3482,-3e-4 4.2519,1.9029 4.2525,4.2511 3e-4,2.3485 -1.9037,4.2525 -4.2525,4.2525 -2.3482,-5e-4 -4.2511,-1.9043 -4.2511,-4.2525 z"
       style="fill:#ffffff;fill-rule:evenodd;stroke:#000000;stroke-width:4;stroke-linecap:butt;stroke-linejoin:round;stroke-miterlimit:4;stroke-dasharray:none;stroke-opacity:1"
       id="path530-5"
       inkscape:connector-curvature="0" />
    <path
       d="m 945.6871,58.5337 h -8.6958 v -9 h -1.1106 -4.8087 -3.2644 v 9 h -9.1837 v -9 h -1.7056 -4.646 -2.8321 v 9 h -9.1834 v -9 h -1.7833 -4.5717 -2.8287 v 9 h -9.1837 v -9 h -1.6968 -4.5864 -2.9004 v 9 h -9.1834 v -9 h -1.8017 -4.6894 -2.6926 v 9 h -9.1837 v -9 h -2.4514 -4.881 -1.8513 v 9 h -9.1834 v -9 h -4.0008 -5.1613 -0.0216 v 9 h -9.1837 v -9 h -1.3742 -5.4295 -2.3799 v 9 h -9.1835 v -9 H 520.9778 v 85.0386 h 269.0756 v -9 h 9.1835 v 9 h 2.3799 5.4295 1.3742 v -9 h 9.1837 v 9 h 0.0216 5.1613 4.0008 v -9 h 9.1834 v 9 h 1.8513 4.881 2.4514 v -9 h 9.1837 v 9 h 2.6926 4.6894 1.8017 v -9 h 9.1834 v 9 h 2.9004 4.5864 1.6968 v -9 h 9.1837 v 9 h 2.8287 4.5717 1.7833 v -9 h 9.1834 v 9 h 2.8321 4.646 1.7056 v -9 h 9.1837 v 9 h 3.2644 4.8087 1.1106 v -9 h 8.7355 l 0.231,-34.5385 C 945.8501,80.1281 945.7333,69.27 945.6871,58.5337 Z"
       style="fill:#ffffff;fill-rule:evenodd;stroke:#000000;stroke-width:4;stroke-linecap:butt;stroke-linejoin:round;stroke-miterlimit:4;stroke-dasharray:none;stroke-opacity:1"
       id="path532-6"
       inkscape:connector-curvature="0" />
  </g>
  <g
     transform="rotate(-90,1150.1341,375.32263)"
     id="Layer1037-9"
     style="stroke:#000000;stroke-width:4;stroke-miterlimit:4;stroke-dasharray:none;stroke-opacity:1">
    <path
       d="m 1456.3026,29.6918 c 0,-4.7112 -4.0297,-8.5048 -9.0351,-8.5048 h -396.3181 v 28.3462 h 377.007 v 85.0385 h -377.007 v 28.3476 h 396.3181 c 5.0057,0 9.0351,-3.7922 9.0351,-8.5034 z"
       style="fill:#ffffff;fill-rule:evenodd;stroke:#000000;stroke-width:4;stroke-linecap:butt;stroke-linejoin:round;stroke-miterlimit:4;stroke-dasharray:none;stroke-opacity:1"
       id="path891"
       inkscape:connector-curvature="0" />
    <path
       d="m 1014.0985,134.5717 h -11.3381 v -11.3363 h -28.3475 v 31.1805 c 0,4.7112 4.0294,8.5034 9.0351,8.5034 h 30.6505 z"
       style="fill:#ffffff;fill-rule:evenodd;stroke:#000000;stroke-width:4;stroke-linecap:butt;stroke-linejoin:round;stroke-miterlimit:4;stroke-dasharray:none;stroke-opacity:1"
       id="path893"
       inkscape:connector-curvature="0" />
    <path
       d="M 1014.0985,21.187 H 983.448 c -5.0057,0 -9.0351,3.7936 -9.0351,8.5048 v 31.1808 h 28.3475 V 49.5332 h 11.3381 z"
       style="fill:#ffffff;fill-rule:evenodd;stroke:#000000;stroke-width:4;stroke-linecap:butt;stroke-linejoin:round;stroke-miterlimit:4;stroke-dasharray:none;stroke-opacity:1"
       id="path895"
       inkscape:connector-curvature="0" />
    <path
       d="m 1439.2945,36.777 c -3e-4,-2.3482 1.9029,-4.252 4.2511,-4.2526 2.3485,-2e-4 4.2525,1.9038 4.2525,4.2526 -6e-4,2.3482 -1.9043,4.2511 -4.2525,4.2511 -2.3477,-6e-4 -4.2506,-1.9035 -4.2511,-4.2511 z"
       style="fill:#ffffff;fill-rule:evenodd;stroke:#000000;stroke-width:4;stroke-linecap:butt;stroke-linejoin:round;stroke-miterlimit:4;stroke-dasharray:none;stroke-opacity:1"
       id="path897"
       inkscape:connector-curvature="0" />
    <path
       d="m 1439.2945,147.3287 c -3e-4,-2.3488 1.9037,-4.2525 4.2525,-4.2525 2.3488,-3e-4 4.2528,1.9037 4.2525,4.2525 -5e-4,2.3482 -1.9043,4.2511 -4.2525,4.2511 -2.3482,3e-4 -4.2517,-1.9029 -4.2525,-4.2511 z"
       style="fill:#ffffff;fill-rule:evenodd;stroke:#000000;stroke-width:4;stroke-linecap:butt;stroke-linejoin:round;stroke-miterlimit:4;stroke-dasharray:none;stroke-opacity:1"
       id="path899"
       inkscape:connector-curvature="0" />
    <path
       d="m 982.9179,36.777 c -3e-4,-2.3482 1.9029,-4.252 4.2511,-4.2526 2.3488,-2e-4 4.2529,1.9038 4.2526,4.2526 -6e-4,2.3482 -1.9043,4.2511 -4.2526,4.2511 -2.3476,-6e-4 -4.2505,-1.9035 -4.2511,-4.2511 z"
       style="fill:#ffffff;fill-rule:evenodd;stroke:#000000;stroke-width:4;stroke-linecap:butt;stroke-linejoin:round;stroke-miterlimit:4;stroke-dasharray:none;stroke-opacity:1"
       id="path901"
       inkscape:connector-curvature="0" />
    <path
       d="m 982.9179,147.3273 c 6e-4,-2.3476 1.9035,-4.2505 4.2511,-4.2511 2.3483,-3e-4 4.252,1.9029 4.2526,4.2511 3e-4,2.3485 -1.9038,4.2525 -4.2526,4.2525 -2.3482,-5e-4 -4.2511,-1.9043 -4.2511,-4.2525 z"
       style="fill:#ffffff;fill-rule:evenodd;stroke:#000000;stroke-width:4;stroke-linecap:butt;stroke-linejoin:round;stroke-miterlimit:4;stroke-dasharray:none;stroke-opacity:1"
       id="path903"
       inkscape:connector-curvature="0" />
  </g>
  <g
     transform="rotate(-90,1042.2885,538.153)"
     id="Layer1050"
     style="stroke:#000000;stroke-width:3;stroke-miterlimit:4;stroke-dasharray:none;stroke-opacity:1">
    <g
       id="Layer1051"
       style="stroke:#000000;stroke-width:3;stroke-miterlimit:4;stroke-dasharray:none;stroke-opacity:1">
      <path
         inkscape:connector-curvature="0"
         d="m 1029.3976,810.521 c 0,4.7112 4.0295,8.5048 9.0352,8.5048 l 463.8194,3e-4 c 5.0057,0 9.0352,-3.7939 9.0352,-8.5051 V 685.7969 c 0,-4.7112 -4.0295,-8.5034 -9.0352,-8.5034 h -463.8194 c -5.0057,0 -9.0352,3.7922 -9.0352,8.5034 z"
         style="fill:#ffffff;fill-rule:evenodd;stroke:#000000;stroke-width:3;stroke-linecap:butt;stroke-linejoin:round;stroke-miterlimit:4;stroke-dasharray:none;stroke-opacity:1"
         id="path1458" />
      <path
         inkscape:connector-curvature="0"
         d="m 1494.2792,692.8838 c -3e-4,-2.3482 1.9029,-4.252 4.2511,-4.2526 2.3485,-2e-4 4.2526,1.9038 4.2526,4.2526 -6e-4,2.3482 -1.9043,4.2511 -4.2526,4.2511 -2.3476,-6e-4 -4.2505,-1.9035 -4.2511,-4.2511 z"
         style="fill:#ffffff;fill-rule:evenodd;stroke:#000000;stroke-width:3;stroke-linecap:butt;stroke-linejoin:round;stroke-miterlimit:4;stroke-dasharray:none;stroke-opacity:1"
         id="path1460" />
      <path
         inkscape:connector-curvature="0"
         d="m 1494.2792,803.4355 c -3e-4,-2.3488 1.9038,-4.2525 4.2525,-4.2525 2.3488,-3e-4 4.2529,1.9037 4.2526,4.2525 -6e-4,2.3482 -1.9043,4.2511 -4.2526,4.2511 -2.3482,3e-4 -4.2516,-1.9029 -4.2525,-4.2511 z"
         style="fill:#ffffff;fill-rule:evenodd;stroke:#000000;stroke-width:3;stroke-linecap:butt;stroke-linejoin:round;stroke-miterlimit:4;stroke-dasharray:none;stroke-opacity:1"
         id="path1462" />
      <path
         inkscape:connector-curvature="0"
         d="m 1037.9027,692.8838 c -3e-4,-2.3482 1.9029,-4.252 4.2511,-4.2526 2.3488,-2e-4 4.2528,1.9038 4.2525,4.2526 -5e-4,2.3482 -1.9043,4.2511 -4.2525,4.2511 -2.3477,-6e-4 -4.2506,-1.9035 -4.2511,-4.2511 z"
         style="fill:#ffffff;fill-rule:evenodd;stroke:#000000;stroke-width:3;stroke-linecap:butt;stroke-linejoin:round;stroke-miterlimit:4;stroke-dasharray:none;stroke-opacity:1"
         id="path1464" />
      <path
         inkscape:connector-curvature="0"
         d="m 1037.9027,803.4341 c 5e-4,-2.3476 1.9034,-4.2505 4.2511,-4.2511 2.3482,-3e-4 4.252,1.9029 4.2525,4.2511 3e-4,2.3485 -1.9037,4.2525 -4.2525,4.2525 -2.3482,-5e-4 -4.2511,-1.9043 -4.2511,-4.2525 z"
         style="fill:#ffffff;fill-rule:evenodd;stroke:#000000;stroke-width:3;stroke-linecap:butt;stroke-linejoin:round;stroke-miterlimit:4;stroke-dasharray:none;stroke-opacity:1"
         id="path1466" />
    </g>
    <path
       inkscape:connector-curvature="0"
       d="M 1050.6573,797.7662 V 698.554 l 439.3701,-4e-4 v 99.2126 z"
       style="fill:#ffffff;fill-rule:evenodd;stroke:#000000;stroke-width:3;stroke-linecap:butt;stroke-linejoin:round;stroke-miterlimit:4;stroke-dasharray:none;stroke-opacity:1"
       id="path1469" />
  </g>
  <flowRoot
     xml:space="preserve"
     id="flowRoot8120"
     style="font-style:normal;font-weight:normal;font-size:42.66666794px;line-height:2;font-family:sans-serif;letter-spacing:0px;word-spacing:0px;fill:#000000;fill-opacity:1;stroke:none"
     transform="translate(34.562368,-220.36182)"><flowRegion
       id="flowRegion8122"
       style="font-size:42.66666794px;line-height:2"><rect
         id="rect8124"
         width="1517.6252"
         height="78.651314"
         x="9.914835"
         y="213.52277"
         style="font-size:42.66666794px;line-height:2" /></flowRegion><flowPara
       id="flowPara8126">      1            2            3           4            5            6           7               </flowPara></flowRoot>  <flowRoot
     xml:space="preserve"
     id="flowRoot8128"
     style="font-style:normal;font-weight:normal;font-size:40px;line-height:1.25;font-family:sans-serif;letter-spacing:0px;word-spacing:0px;fill:#000000;fill-opacity:1;stroke:none"
     transform="translate(0,-22)"><flowRegion
       id="flowRegion8130"><rect
         id="rect8132"
         width="178.34732"
         height="55.022049"
         x="273.21292"
         y="180.57626" /></flowRegion><flowPara
       id="flowPara8134"></flowPara></flowRoot>  <flowRoot
     xml:space="preserve"
     id="flowRoot8136"
     style="font-style:normal;font-weight:normal;font-size:40px;line-height:1.25;font-family:sans-serif;letter-spacing:0px;word-spacing:0px;fill:#000000;fill-opacity:1;stroke:none"
     transform="translate(0,-22)"><flowRegion
       id="flowRegion8138"><rect
         id="rect8140"
         width="132.81184"
         height="43.638176"
         x="320.64572"
         y="317.18271" /></flowRegion><flowPara
       id="flowPara8142"></flowPara></flowRoot>  <flowRoot
     xml:space="preserve"
     id="flowRoot8120-7"
     style="font-style:normal;font-weight:normal;font-size:42.66666794px;line-height:2;font-family:sans-serif;letter-spacing:0px;word-spacing:0px;fill:#000000;fill-opacity:1;stroke:none"
     transform="translate(11.094226,-243.05358)"><flowRegion
       id="flowRegion8122-4"
       style="font-size:42.66666794px;line-height:2"><rect
         id="rect8124-5"
         width="1504.344"
         height="145.05722"
         x="9.914835"
         y="213.52277"
         style="font-size:42.66666794px;line-height:2" /></flowRegion><flowPara
       id="flowPara8126-2"
       style="font-size:37.33333206px" /></flowRoot>  <text
     xml:space="preserve"
     style="font-style:normal;font-weight:normal;font-size:40px;line-height:1.25;font-family:sans-serif;letter-spacing:0px;word-spacing:0px;fill:#000000;fill-opacity:1;stroke:none"
     x="1703.7863"
     y="154.78165"
     id="text8174"><tspan
       sodipodi:role="line"
       id="tspan8172"
       x="1703.7863"
       y="190.17227"></tspan></text>
  <g
     id="Layer1026-5"
     style="stroke:#000000;stroke-width:3;stroke-miterlimit:4;stroke-dasharray:none;stroke-opacity:1"
     transform="translate(1331.3656,-1004.9606)">
    <path
       d="m 130.8947,1245.8375 c 1.9591,0 3.5457,1.5878 3.5457,3.5458 0,1.9542 -1.5866,3.5405 -3.5457,3.5405 -1.9532,0 -3.5409,-1.5863 -3.5409,-3.5405 0,-1.958 1.5877,-3.5458 3.5409,-3.5458 z"
       style="fill:none;stroke:#000000;stroke-width:3;stroke-linecap:square;stroke-linejoin:round;stroke-miterlimit:4;stroke-dasharray:none;stroke-opacity:1"
       id="path516-4"
       inkscape:connector-curvature="0" />
    <path
       d="m 66.1216,1245.8375 c 1.958,0 3.5458,1.5878 3.5458,3.5458 0,1.9542 -1.5878,3.5405 -3.5458,3.5405 -1.9542,0 -3.5408,-1.5863 -3.5408,-3.5405 0,-1.958 1.5866,-3.5458 3.5408,-3.5458 z"
       style="fill:none;stroke:#000000;stroke-width:3;stroke-linecap:square;stroke-linejoin:round;stroke-miterlimit:4;stroke-dasharray:none;stroke-opacity:1"
       id="path518-7"
       inkscape:connector-curvature="0" />
    <path
       d="m 131.0791,1235.1059 c 2.3471,0 4.25,1.9017 4.25,4.2499 0,2.3508 -1.9029,4.254 -4.25,4.254 -2.3519,0 -4.2539,-1.9032 -4.2539,-4.254 0,-2.3482 1.902,-4.2499 4.2539,-4.2499 z"
       style="fill:none;stroke:#000000;stroke-width:3;stroke-linecap:square;stroke-linejoin:round;stroke-miterlimit:4;stroke-dasharray:none;stroke-opacity:1"
       id="path520-4"
       inkscape:connector-curvature="0" />
    <path
       d="m 98.477,1235.1059 c 2.3522,0 4.254,1.9017 4.254,4.2499 0,2.3508 -1.9018,4.254 -4.254,4.254 -2.3468,0 -4.25,-1.9032 -4.25,-4.254 0,-2.3482 1.9032,-4.2499 4.25,-4.2499 z"
       style="fill:none;stroke:#000000;stroke-width:3;stroke-linecap:square;stroke-linejoin:round;stroke-miterlimit:4;stroke-dasharray:none;stroke-opacity:1"
       id="path522-4"
       inkscape:connector-curvature="0" />
    <path
       d="m 65.88,1235.1059 c 2.3511,0 4.2542,1.9017 4.2542,4.2499 0,2.3508 -1.9031,4.254 -4.2542,4.254 -2.3479,0 -4.25,-1.9032 -4.25,-4.254 0,-2.3482 1.9021,-4.2499 4.25,-4.2499 z"
       style="fill:none;stroke:#000000;stroke-width:3;stroke-linecap:square;stroke-linejoin:round;stroke-miterlimit:4;stroke-dasharray:none;stroke-opacity:1"
       id="path524-3"
       inkscape:connector-curvature="0" />
    <path
       d="m 132.512,1226.0447 c 1.9578,0 3.5433,1.5828 3.5433,3.5405 0,1.9591 -1.5855,3.5458 -3.5433,3.5458 -1.9563,0 -3.5433,-1.5867 -3.5433,-3.5458 0,-1.9577 1.587,-3.5455 3.5433,-3.5405 z"
       style="fill:none;stroke:#000000;stroke-width:3;stroke-linecap:square;stroke-linejoin:round;stroke-miterlimit:4;stroke-dasharray:none;stroke-opacity:1"
       id="path526-0"
       inkscape:connector-curvature="0" />
    <path
       d="m 64.5119,1225.9863 c 1.9579,0 3.5435,1.5868 3.5435,3.546 0,1.9529 -1.5856,3.5407 -3.5435,3.5407 -1.9564,0 -3.5431,-1.5878 -3.5431,-3.5407 0,-1.9592 1.5867,-3.546 3.5431,-3.546 z"
       style="fill:none;stroke:#000000;stroke-width:3;stroke-linecap:square;stroke-linejoin:round;stroke-miterlimit:4;stroke-dasharray:none;stroke-opacity:1"
       id="path528-7"
       inkscape:connector-curvature="0" />
    <path
       d="m 104.1764,1225.8924 c 1.9546,0 3.5416,1.5881 3.5416,3.5458 0,1.9531 -1.587,3.5408 -3.5416,3.5408 -1.9581,0 -3.5451,-1.5877 -3.5451,-3.5408 0,-1.9577 1.587,-3.5458 3.5451,-3.5458 z"
       style="fill:none;stroke:#000000;stroke-width:3;stroke-linecap:square;stroke-linejoin:round;stroke-miterlimit:4;stroke-dasharray:none;stroke-opacity:1"
       id="path530-8"
       inkscape:connector-curvature="0" />
    <path
       d="m 92.821,1225.8924 c 1.9567,0 3.5433,1.5881 3.5433,3.5458 0,1.9531 -1.5866,3.5408 -3.5433,3.5408 -1.9563,0 -3.5433,-1.5877 -3.5433,-3.5408 0,-1.9577 1.587,-3.5458 3.5433,-3.5458 z"
       style="fill:none;stroke:#000000;stroke-width:3;stroke-linecap:square;stroke-linejoin:round;stroke-miterlimit:4;stroke-dasharray:none;stroke-opacity:1"
       id="path532-68"
       inkscape:connector-curvature="0" />
    <path
       d="m 98.477,1216.6798 c 2.3522,0 4.254,1.9021 4.254,4.254 0,2.3479 -1.9018,4.2499 -4.254,4.2499 -2.3468,0 -4.25,-1.902 -4.25,-4.2499 0,-2.3519 1.9032,-4.254 4.25,-4.254 z"
       style="fill:none;stroke:#000000;stroke-width:3;stroke-linecap:square;stroke-linejoin:round;stroke-miterlimit:4;stroke-dasharray:none;stroke-opacity:1"
       id="path534-8"
       inkscape:connector-curvature="0" />
    <path
       d="m 98.477,1205.3438 c 2.3522,0 4.254,1.902 4.254,4.25 0,2.3479 -1.9018,4.2539 -4.254,4.2499 -2.3468,0 -4.25,-1.902 -4.25,-4.2499 0,-2.348 1.9032,-4.25 4.25,-4.25 z"
       style="fill:none;stroke:#000000;stroke-width:3;stroke-linecap:square;stroke-linejoin:round;stroke-miterlimit:4;stroke-dasharray:none;stroke-opacity:1"
       id="path536-4"
       inkscape:connector-curvature="0" />
    <path
       d="m 104.1805,1197.5465 c 1.9542,0 3.5409,1.5866 3.5409,3.5433 0,1.9578 -1.5867,3.5433 -3.5409,3.5433 -1.9577,0 -3.5458,-1.5855 -3.5458,-3.5433 0,-1.9567 1.5881,-3.5433 3.5458,-3.5433 z"
       style="fill:none;stroke:#000000;stroke-width:3;stroke-linecap:square;stroke-linejoin:round;stroke-miterlimit:4;stroke-dasharray:none;stroke-opacity:1"
       id="path538-3"
       inkscape:connector-curvature="0" />
    <path
       d="m 92.821,1197.5465 c 1.9567,0 3.5433,1.5866 3.5433,3.5433 0,1.9578 -1.5866,3.5433 -3.5433,3.5433 -1.9563,0 -3.5433,-1.5855 -3.5433,-3.5433 0,-1.9567 1.587,-3.5433 3.5433,-3.5433 z"
       style="fill:none;stroke:#000000;stroke-width:3;stroke-linecap:square;stroke-linejoin:round;stroke-miterlimit:4;stroke-dasharray:none;stroke-opacity:1"
       id="path540-1"
       inkscape:connector-curvature="0" />
    <path
       d="m 71.551,1198.2458 h 15.1492 v 9.4419 h 4.7228 v 15.1481 h -4.7228 v 12.2618 H 71.551 v -12.2618 H 60.243 v -15.1481 h 11.308 z"
       style="fill:none;stroke:#000000;stroke-width:3;stroke-linecap:square;stroke-linejoin:round;stroke-miterlimit:4;stroke-dasharray:none;stroke-opacity:1"
       id="path542-4"
       inkscape:connector-curvature="0" />
    <path
       d="m 64.5546,1197.5367 c 1.9591,0 3.5458,1.5877 3.5458,3.5419 0,1.9577 -1.5867,3.5443 -3.5458,3.5443 -1.9528,0 -3.5408,-1.5866 -3.5408,-3.5443 0,-1.9542 1.588,-3.5419 3.5408,-3.5419 z"
       style="fill:none;stroke:#000000;stroke-width:3;stroke-linecap:square;stroke-linejoin:round;stroke-miterlimit:4;stroke-dasharray:none;stroke-opacity:1"
       id="path544-9"
       inkscape:connector-curvature="0" />
    <path
       d="m 132.3847,1197.4474 c 1.9528,0 3.5406,1.5867 3.5406,3.5407 0,1.9581 -1.5878,3.5459 -3.5406,3.5459 -1.9592,0 -3.546,-1.5878 -3.546,-3.5459 0,-1.954 1.5868,-3.5407 3.546,-3.5407 z"
       style="fill:none;stroke:#000000;stroke-width:3;stroke-linecap:square;stroke-linejoin:round;stroke-miterlimit:4;stroke-dasharray:none;stroke-opacity:1"
       id="path546-2"
       inkscape:connector-curvature="0" />
    <path
       d="m 111.676,1198.1568 h 15.1492 v 9.5309 h 9.953 v 15.1481 h -9.953 v 12.172 H 111.676 v -12.172 h -6.0778 v -15.1481 h 6.0778 z"
       style="fill:none;stroke:#000000;stroke-width:3;stroke-linecap:square;stroke-linejoin:round;stroke-miterlimit:4;stroke-dasharray:none;stroke-opacity:1"
       id="path548-0"
       inkscape:connector-curvature="0" />
    <path
       d="m 131.0791,1186.9138 c 2.3471,0 4.25,1.9068 4.25,4.2539 0,2.348 -1.9029,4.254 -4.25,4.254 -2.3519,0 -4.2539,-1.906 -4.2539,-4.254 0,-2.3471 1.902,-4.2539 4.2539,-4.2539 z"
       style="fill:none;stroke:#000000;stroke-width:3;stroke-linecap:square;stroke-linejoin:round;stroke-miterlimit:4;stroke-dasharray:none;stroke-opacity:1"
       id="path550-6"
       inkscape:connector-curvature="0" />
    <path
       d="m 98.477,1186.9138 c 2.3522,0 4.254,1.9068 4.254,4.2539 0,2.348 -1.9018,4.254 -4.254,4.254 -2.3468,0 -4.25,-1.906 -4.25,-4.254 0,-2.3471 1.9032,-4.2539 4.25,-4.2539 z"
       style="fill:none;stroke:#000000;stroke-width:3;stroke-linecap:square;stroke-linejoin:round;stroke-miterlimit:4;stroke-dasharray:none;stroke-opacity:1"
       id="path552-8"
       inkscape:connector-curvature="0" />
    <path
       d="m 65.88,1186.9138 c 2.3511,0 4.2542,1.9068 4.2542,4.2539 0,2.348 -1.9031,4.254 -4.2542,4.254 -2.3479,0 -4.25,-1.906 -4.25,-4.254 0,-2.3471 1.9021,-4.2539 4.25,-4.2539 z"
       style="fill:none;stroke:#000000;stroke-width:3;stroke-linecap:square;stroke-linejoin:round;stroke-miterlimit:4;stroke-dasharray:none;stroke-opacity:1"
       id="path554-9"
       inkscape:connector-curvature="0" />
    <path
       d="m 131.2126,1177.9155 c 1.958,0 3.5408,1.5827 3.5408,3.5408 0,1.9591 -1.5828,3.5458 -3.5408,3.5458 -1.9592,0 -3.5458,-1.5867 -3.5458,-3.5458 0,-1.9581 1.5866,-3.5408 3.5458,-3.5408 z"
       style="fill:none;stroke:#000000;stroke-width:3;stroke-linecap:square;stroke-linejoin:round;stroke-miterlimit:4;stroke-dasharray:none;stroke-opacity:1"
       id="path556-2"
       inkscape:connector-curvature="0" />
    <path
       d="m 66.1216,1177.5994 c 1.9581,0 3.5458,1.5881 3.5458,3.5458 0,1.9531 -1.5877,3.5408 -3.5458,3.5408 -1.9542,0 -3.5408,-1.5877 -3.5408,-3.5408 0,-1.9577 1.5866,-3.5458 3.5408,-3.5458 z"
       style="fill:none;stroke:#000000;stroke-width:3;stroke-linecap:square;stroke-linejoin:round;stroke-miterlimit:4;stroke-dasharray:none;stroke-opacity:1"
       id="path558-6"
       inkscape:connector-curvature="0" />
    <path
       d="m 64.434,1172.7428 c -4.676,0 -8.4449,3.8081 -8.4449,8.5348 v 67.968 c 0,4.7311 3.7689,8.5363 8.4449,8.5363 h 16.153 v -11.336 h 36.8512 v 11.336 h 15.145 c 4.6788,0 8.445,-3.8052 8.445,-8.5363 v -67.968 c 0,-4.7267 -3.7662,-8.5348 -8.445,-8.5348 h -15.649 v 11.3389 H 80.087 v -11.3389 z"
       style="fill:none;stroke:#000000;stroke-width:3;stroke-linecap:square;stroke-linejoin:round;stroke-miterlimit:4;stroke-dasharray:none;stroke-opacity:1"
       id="path560-6"
       inkscape:connector-curvature="0" />
  </g>
  <flowRoot
     xml:space="preserve"
     id="flowRoot8120-4"
     style="font-style:normal;font-weight:normal;font-size:42.66666794px;line-height:2;font-family:sans-serif;letter-spacing:0px;word-spacing:0px;fill:#000000;fill-opacity:1;stroke:none"
     transform="translate(28.760595,651.51374)"><flowRegion
       id="flowRegion8122-9"
       style="font-size:42.66666794px;line-height:2"><rect
         id="rect8124-50"
         width="1052.7834"
         height="226.64166"
         x="144.62399"
         y="190.75502"
         style="font-size:42.66666794px;line-height:2" /></flowRegion><flowPara
       id="flowPara8126-4"
       style="font-size:21.33333397px" /></flowRoot>  <flowRoot
     xml:space="preserve"
     id="flowRoot8272"
     style="font-style:normal;font-weight:normal;font-size:40px;line-height:1.25;font-family:sans-serif;letter-spacing:0px;word-spacing:0px;fill:#000000;fill-opacity:1;stroke:none"
     transform="translate(0,-22)"><flowRegion
       id="flowRegion8274"><rect
         id="rect8276"
         width="1667.7372"
         height="314.9538"
         x="-62.611298"
         y="865.50586" /></flowRegion><flowPara
       id="flowPara8278"></flowPara></flowRoot>  <flowRoot
     xml:space="preserve"
     id="flowRoot8280"
     style="font-style:normal;font-weight:normal;font-size:40px;line-height:1.25;font-family:sans-serif;letter-spacing:0px;word-spacing:0px;fill:#000000;fill-opacity:1;stroke:none"
     transform="translate(0,-22)"><flowRegion
       id="flowRegion8282"><rect
         id="rect8284"
         width="0"
         height="47.4328"
         x="24.665056"
         y="43.969795" /></flowRegion><flowPara
       id="flowPara8286"></flowPara></flowRoot>  <flowRoot
     xml:space="preserve"
     id="flowRoot8120-2"
     style="font-style:normal;font-weight:normal;font-size:42.66666794px;line-height:2;font-family:sans-serif;text-align:center;letter-spacing:0px;word-spacing:0px;text-anchor:middle;fill:#000000;fill-opacity:1;stroke:none"
     transform="translate(1319.9791,-223.22452)"><flowRegion
       id="flowRegion8122-7"
       style="font-size:42.66666794px;line-height:2;text-align:center;text-anchor:middle"><rect
         id="rect8124-2"
         width="198.99338"
         height="183.00346"
         x="9.914835"
         y="213.52277"
         style="font-size:42.66666794px;line-height:2;text-align:center;text-anchor:middle" /></flowRegion><flowPara
       id="flowPara8126-26">Sensor Slide</flowPara></flowRoot>  <text
     xml:space="preserve"
     style="font-style:normal;font-weight:normal;font-size:40px;line-height:1.25;font-family:sans-serif;letter-spacing:0px;word-spacing:0px;fill:#000000;fill-opacity:1;stroke:none"
     x="-571.09088"
     y="274.31229"
     id="text8330"><tspan
       sodipodi:role="line"
       id="tspan8328"
       x="-571.09088"
       y="274.31229"> </tspan></text>
</svg>
