<?xml version="1.0" encoding="UTF-8" standalone="no"?>
<svg
   xmlns:dc="http://purl.org/dc/elements/1.1/"
   xmlns:cc="http://creativecommons.org/ns#"
   xmlns:rdf="http://www.w3.org/1999/02/22-rdf-syntax-ns#"
   xmlns:svg="http://www.w3.org/2000/svg"
   xmlns="http://www.w3.org/2000/svg"
   xmlns:sodipodi="http://sodipodi.sourceforge.net/DTD/sodipodi-0.dtd"
   xmlns:inkscape="http://www.inkscape.org/namespaces/inkscape"
   version="1.1"
   width="2880"
   height="2016"
   id="svg374"
   viewBox="0 0 2880 2016"
   sodipodi:docname="PRINT3.cdr.svg"
   inkscape:version="0.92.3 (2405546, 2018-03-11)">
  <metadata
     id="metadata380">
    <rdf:RDF>
      <cc:Work
         rdf:about="">
        <dc:format>image/svg+xml</dc:format>
        <dc:type
           rdf:resource="http://purl.org/dc/dcmitype/StillImage" />
        <dc:title></dc:title>
      </cc:Work>
    </rdf:RDF>
  </metadata>
  <defs
     id="defs378" />
  <sodipodi:namedview
     pagecolor="#ffffff"
     bordercolor="#666666"
     borderopacity="1"
     objecttolerance="10"
     gridtolerance="10"
     guidetolerance="10"
     inkscape:pageopacity="0"
     inkscape:pageshadow="2"
     inkscape:window-width="1533"
     inkscape:window-height="845"
     id="namedview376"
     showgrid="false"
     inkscape:zoom="0.11706349"
     inkscape:cx="1440"
     inkscape:cy="1008"
     inkscape:window-x="67"
     inkscape:window-y="27"
     inkscape:window-maximized="1"
     inkscape:current-layer="svg374" />
  <g
     id="Layer1000"
     style="fill:none;fill-opacity:1;stroke:#000000;stroke-opacity:1;stroke-width:5;stroke-miterlimit:4;stroke-dasharray:none">
    <path
       d="m 978.141,26.2213 c 0,-4.7112 -4.0298,-8.5048 -9.0352,-8.5048 H 575.6814 v 28.3462 h 374.1134 v 85.0385 H 575.6814 v 28.3476 h 393.4244 c 5.0057,0 9.0352,-3.7922 9.0352,-8.5034 z m -17.0082,117.637 c -3e-4,-2.3488 1.9038,-4.2526 4.2526,-4.2526 2.3487,-3e-4 4.2528,1.9038 4.2525,4.2526 -6e-4,2.3482 -1.9043,4.2511 -4.2525,4.2511 -2.3483,3e-4 -4.2517,-1.9029 -4.2526,-4.2511 z m 0,-110.5518 c -3e-4,-2.3482 1.9029,-4.2519 4.2511,-4.2525 2.3485,-3e-4 4.2526,1.9037 4.2526,4.2525 -6e-4,2.3482 -1.9043,4.2511 -4.2526,4.2511 -2.3476,-5e-4 -4.2505,-1.9034 -4.2511,-4.2511 z"
       style="fill:none;fill-rule:evenodd;stroke:#000000;stroke-width:5;stroke-linecap:butt;stroke-linejoin:round;stroke-dasharray:none;fill-opacity:1;stroke-opacity:1;stroke-miterlimit:4"
       id="path2"
       inkscape:connector-curvature="0" />
    <path
       d="m 535.9368,131.1012 h -11.338 V 119.7649 46.0627 h 11.338 V 17.7165 h -30.6504 c -5.0057,0 -9.0352,3.7936 -9.0352,8.5048 v 93.5436 31.1805 c 0,4.7112 4.0295,8.5034 9.0352,8.5034 h 30.6504 z"
       style="fill:none;fill-rule:evenodd;stroke:#000000;stroke-width:5;stroke-linecap:butt;stroke-linejoin:round;stroke-dasharray:none;fill-opacity:1;stroke-opacity:1;stroke-miterlimit:4"
       id="path4"
       inkscape:connector-curvature="0" />
    <path
       d="m 961.1328,33.3065 c -3e-4,-2.3482 1.9029,-4.2519 4.2511,-4.2525 2.3485,-3e-4 4.2526,1.9037 4.2526,4.2525 -6e-4,2.3482 -1.9043,4.2511 -4.2526,4.2511 -2.3476,-5e-4 -4.2505,-1.9034 -4.2511,-4.2511 z"
       style="fill:none;fill-rule:evenodd;stroke:#000000;stroke-width:5;stroke-linecap:butt;stroke-linejoin:round;stroke-dasharray:none;fill-opacity:1;stroke-opacity:1;stroke-miterlimit:4"
       id="path6"
       inkscape:connector-curvature="0" />
    <path
       d="m 961.1328,143.8583 c -3e-4,-2.3488 1.9038,-4.2526 4.2526,-4.2526 2.3487,-3e-4 4.2528,1.9038 4.2525,4.2526 -6e-4,2.3482 -1.9043,4.2511 -4.2525,4.2511 -2.3483,3e-4 -4.2517,-1.9029 -4.2526,-4.2511 z"
       style="fill:none;fill-rule:evenodd;stroke:#000000;stroke-width:5;stroke-linecap:butt;stroke-linejoin:round;stroke-dasharray:none;fill-opacity:1;stroke-opacity:1;stroke-miterlimit:4"
       id="path8"
       inkscape:connector-curvature="0" />
    <path
       d="m 504.7563,33.3065 c -3e-4,-2.3482 1.9029,-4.2519 4.2511,-4.2525 2.3488,-3e-4 4.2528,1.9037 4.2525,4.2525 -5e-4,2.3482 -1.9043,4.2511 -4.2525,4.2511 -2.3477,-5e-4 -4.2505,-1.9034 -4.2511,-4.2511 z"
       style="fill:none;fill-rule:evenodd;stroke:#000000;stroke-width:5;stroke-linecap:butt;stroke-linejoin:round;stroke-dasharray:none;fill-opacity:1;stroke-opacity:1;stroke-miterlimit:4"
       id="path10"
       inkscape:connector-curvature="0" />
    <path
       d="m 504.7563,143.8569 c 6e-4,-2.3477 1.9034,-4.2506 4.2511,-4.2512 2.3482,-3e-4 4.252,1.9029 4.2525,4.2512 3e-4,2.3485 -1.9037,4.2525 -4.2525,4.2525 -2.3482,-6e-4 -4.2511,-1.9043 -4.2511,-4.2525 z"
       style="fill:none;fill-rule:evenodd;stroke:#000000;stroke-width:5;stroke-linecap:butt;stroke-linejoin:round;stroke-dasharray:none;fill-opacity:1;stroke-opacity:1;stroke-miterlimit:4"
       id="path12"
       inkscape:connector-curvature="0" />
  </g>
  <g
     id="Layer1001"
     style="fill:none;fill-opacity:1;stroke:#000000;stroke-opacity:1;stroke-width:5;stroke-miterlimit:4;stroke-dasharray:none">
    <path
       d="m 978.141,167.9536 c 0,-4.7112 -4.0298,-8.5048 -9.0352,-8.5048 H 575.6814 v 28.3462 h 374.1134 v 85.0385 H 575.6814 v 28.3476 h 393.4244 c 5.0057,0 9.0352,-3.7922 9.0352,-8.5034 z m -17.0082,117.637 c -3e-4,-2.3488 1.9038,-4.2526 4.2526,-4.2526 2.3487,-3e-4 4.2528,1.9038 4.2525,4.2526 -6e-4,2.3482 -1.9043,4.2511 -4.2525,4.2511 -2.3483,3e-4 -4.2517,-1.9029 -4.2526,-4.2511 z m 0,-110.5518 c -3e-4,-2.3482 1.9029,-4.252 4.2511,-4.2525 2.3485,-3e-4 4.2526,1.9037 4.2526,4.2525 -6e-4,2.3482 -1.9043,4.2511 -4.2526,4.2511 -2.3476,-5e-4 -4.2505,-1.9034 -4.2511,-4.2511 z"
       style="fill:none;fill-rule:evenodd;stroke:#000000;stroke-width:5;stroke-linecap:butt;stroke-linejoin:round;stroke-dasharray:none;fill-opacity:1;stroke-opacity:1;stroke-miterlimit:4"
       id="path15"
       inkscape:connector-curvature="0" />
    <path
       d="m 535.9368,272.8335 h -11.338 V 261.4972 187.795 h 11.338 v -28.3462 h -30.6504 c -5.0057,0 -9.0352,3.7936 -9.0352,8.5048 v 93.5436 31.1805 c 0,4.7112 4.0295,8.5034 9.0352,8.5034 h 30.6504 z"
       style="fill:none;fill-rule:evenodd;stroke:#000000;stroke-width:5;stroke-linecap:butt;stroke-linejoin:round;stroke-dasharray:none;fill-opacity:1;stroke-opacity:1;stroke-miterlimit:4"
       id="path17"
       inkscape:connector-curvature="0" />
    <path
       d="m 961.1328,175.0388 c -3e-4,-2.3482 1.9029,-4.252 4.2511,-4.2525 2.3485,-3e-4 4.2526,1.9037 4.2526,4.2525 -6e-4,2.3482 -1.9043,4.2511 -4.2526,4.2511 -2.3476,-5e-4 -4.2505,-1.9034 -4.2511,-4.2511 z"
       style="fill:none;fill-rule:evenodd;stroke:#000000;stroke-width:5;stroke-linecap:butt;stroke-linejoin:round;stroke-dasharray:none;fill-opacity:1;stroke-opacity:1;stroke-miterlimit:4"
       id="path19"
       inkscape:connector-curvature="0" />
    <path
       d="m 961.1328,285.5906 c -3e-4,-2.3488 1.9038,-4.2526 4.2526,-4.2526 2.3487,-3e-4 4.2528,1.9038 4.2525,4.2526 -6e-4,2.3482 -1.9043,4.2511 -4.2525,4.2511 -2.3483,3e-4 -4.2517,-1.9029 -4.2526,-4.2511 z"
       style="fill:none;fill-rule:evenodd;stroke:#000000;stroke-width:5;stroke-linecap:butt;stroke-linejoin:round;stroke-dasharray:none;fill-opacity:1;stroke-opacity:1;stroke-miterlimit:4"
       id="path21"
       inkscape:connector-curvature="0" />
    <path
       d="m 504.7563,175.0388 c -3e-4,-2.3482 1.9029,-4.252 4.2511,-4.2525 2.3488,-3e-4 4.2528,1.9037 4.2525,4.2525 -5e-4,2.3482 -1.9043,4.2511 -4.2525,4.2511 -2.3477,-5e-4 -4.2505,-1.9034 -4.2511,-4.2511 z"
       style="fill:none;fill-rule:evenodd;stroke:#000000;stroke-width:5;stroke-linecap:butt;stroke-linejoin:round;stroke-dasharray:none;fill-opacity:1;stroke-opacity:1;stroke-miterlimit:4"
       id="path23"
       inkscape:connector-curvature="0" />
    <path
       d="m 504.7563,285.5891 c 6e-4,-2.3476 1.9034,-4.2505 4.2511,-4.2511 2.3482,-3e-4 4.252,1.9029 4.2525,4.2511 3e-4,2.3485 -1.9037,4.2526 -4.2525,4.2526 -2.3482,-6e-4 -4.2511,-1.9043 -4.2511,-4.2526 z"
       style="fill:none;fill-rule:evenodd;stroke:#000000;stroke-width:5;stroke-linecap:butt;stroke-linejoin:round;stroke-dasharray:none;fill-opacity:1;stroke-opacity:1;stroke-miterlimit:4"
       id="path25"
       inkscape:connector-curvature="0" />
  </g>
  <g
     id="Layer1002"
     style="fill:none;fill-opacity:1;stroke:#000000;stroke-opacity:1;stroke-width:5;stroke-miterlimit:4;stroke-dasharray:none">
    <path
       d="m 978.141,309.6859 c 0,-4.7112 -4.0298,-8.5048 -9.0352,-8.5048 H 575.6814 v 28.3462 h 374.1134 v 85.0385 H 575.6814 v 28.3476 h 393.4244 c 5.0057,0 9.0352,-3.7922 9.0352,-8.5034 z m -17.0082,117.6369 c -3e-4,-2.3488 1.9038,-4.2525 4.2526,-4.2525 2.3487,-3e-4 4.2528,1.9037 4.2525,4.2525 -6e-4,2.3483 -1.9043,4.2512 -4.2525,4.2512 -2.3483,2e-4 -4.2517,-1.9029 -4.2526,-4.2512 z m 0,-110.5517 c -3e-4,-2.3482 1.9029,-4.252 4.2511,-4.2525 2.3485,-3e-4 4.2526,1.9037 4.2526,4.2525 -6e-4,2.3482 -1.9043,4.2511 -4.2526,4.2511 -2.3476,-6e-4 -4.2505,-1.9035 -4.2511,-4.2511 z"
       style="fill:none;fill-rule:evenodd;stroke:#000000;stroke-width:5;stroke-linecap:butt;stroke-linejoin:round;stroke-dasharray:none;fill-opacity:1;stroke-opacity:1;stroke-miterlimit:4"
       id="path28"
       inkscape:connector-curvature="0" />
    <path
       d="m 535.9368,414.5658 h -11.338 v -11.3363 -73.7022 h 11.338 v -28.3462 h -30.6504 c -5.0057,0 -9.0352,3.7936 -9.0352,8.5048 v 93.5436 31.1805 c 0,4.7112 4.0295,8.5034 9.0352,8.5034 h 30.6504 z"
       style="fill:none;fill-rule:evenodd;stroke:#000000;stroke-width:5;stroke-linecap:butt;stroke-linejoin:round;stroke-dasharray:none;fill-opacity:1;stroke-opacity:1;stroke-miterlimit:4"
       id="path30"
       inkscape:connector-curvature="0" />
    <path
       d="m 961.1328,316.7711 c -3e-4,-2.3482 1.9029,-4.252 4.2511,-4.2525 2.3485,-3e-4 4.2526,1.9037 4.2526,4.2525 -6e-4,2.3482 -1.9043,4.2511 -4.2526,4.2511 -2.3476,-6e-4 -4.2505,-1.9035 -4.2511,-4.2511 z"
       style="fill:none;fill-rule:evenodd;stroke:#000000;stroke-width:5;stroke-linecap:butt;stroke-linejoin:round;stroke-dasharray:none;fill-opacity:1;stroke-opacity:1;stroke-miterlimit:4"
       id="path32"
       inkscape:connector-curvature="0" />
    <path
       d="m 961.1328,427.3228 c -3e-4,-2.3488 1.9038,-4.2525 4.2526,-4.2525 2.3487,-3e-4 4.2528,1.9037 4.2525,4.2525 -6e-4,2.3483 -1.9043,4.2512 -4.2525,4.2512 -2.3483,2e-4 -4.2517,-1.9029 -4.2526,-4.2512 z"
       style="fill:none;fill-rule:evenodd;stroke:#000000;stroke-width:5;stroke-linecap:butt;stroke-linejoin:round;stroke-dasharray:none;fill-opacity:1;stroke-opacity:1;stroke-miterlimit:4"
       id="path34"
       inkscape:connector-curvature="0" />
    <path
       d="m 504.7563,316.7711 c -3e-4,-2.3482 1.9029,-4.252 4.2511,-4.2525 2.3488,-3e-4 4.2528,1.9037 4.2525,4.2525 -5e-4,2.3482 -1.9043,4.2511 -4.2525,4.2511 -2.3477,-6e-4 -4.2505,-1.9035 -4.2511,-4.2511 z"
       style="fill:none;fill-rule:evenodd;stroke:#000000;stroke-width:5;stroke-linecap:butt;stroke-linejoin:round;stroke-dasharray:none;fill-opacity:1;stroke-opacity:1;stroke-miterlimit:4"
       id="path36"
       inkscape:connector-curvature="0" />
    <path
       d="m 504.7563,427.3214 c 6e-4,-2.3476 1.9034,-4.2505 4.2511,-4.2511 2.3482,-3e-4 4.252,1.9029 4.2525,4.2511 3e-4,2.3485 -1.9037,4.2526 -4.2525,4.2526 -2.3482,-6e-4 -4.2511,-1.9044 -4.2511,-4.2526 z"
       style="fill:none;fill-rule:evenodd;stroke:#000000;stroke-width:5;stroke-linecap:butt;stroke-linejoin:round;stroke-dasharray:none;fill-opacity:1;stroke-opacity:1;stroke-miterlimit:4"
       id="path38"
       inkscape:connector-curvature="0" />
  </g>
  <g
     id="Layer1003"
     style="fill:none;fill-opacity:1;stroke:#000000;stroke-opacity:1;stroke-width:5;stroke-miterlimit:4;stroke-dasharray:none">
    <path
       d="m 978.141,451.4182 c 0,-4.7112 -4.0298,-8.5048 -9.0352,-8.5048 H 575.6814 v 28.3462 h 374.1134 v 85.0385 H 575.6814 v 28.3476 h 393.4244 c 5.0057,0 9.0352,-3.7922 9.0352,-8.5034 z m -17.0082,117.6369 c -3e-4,-2.3488 1.9038,-4.2525 4.2526,-4.2525 2.3487,-3e-4 4.2528,1.9037 4.2525,4.2525 -6e-4,2.3482 -1.9043,4.2511 -4.2525,4.2511 -2.3483,3e-4 -4.2517,-1.9029 -4.2526,-4.2511 z m 0,-110.5517 c -3e-4,-2.3483 1.9029,-4.252 4.2511,-4.2526 2.3485,-2e-4 4.2526,1.9038 4.2526,4.2526 -6e-4,2.3482 -1.9043,4.2511 -4.2526,4.2511 -2.3476,-6e-4 -4.2505,-1.9035 -4.2511,-4.2511 z"
       style="fill:none;fill-rule:evenodd;stroke:#000000;stroke-width:5;stroke-linecap:butt;stroke-linejoin:round;stroke-dasharray:none;fill-opacity:1;stroke-opacity:1;stroke-miterlimit:4"
       id="path41"
       inkscape:connector-curvature="0" />
    <path
       d="m 535.9368,556.2981 h -11.338 v -11.3363 -73.7022 h 11.338 v -28.3462 h -30.6504 c -5.0057,0 -9.0352,3.7936 -9.0352,8.5048 v 93.5436 31.1805 c 0,4.7112 4.0295,8.5034 9.0352,8.5034 h 30.6504 z"
       style="fill:none;fill-rule:evenodd;stroke:#000000;stroke-width:5;stroke-linecap:butt;stroke-linejoin:round;stroke-dasharray:none;fill-opacity:1;stroke-opacity:1;stroke-miterlimit:4"
       id="path43"
       inkscape:connector-curvature="0" />
    <path
       d="m 961.1328,458.5034 c -3e-4,-2.3483 1.9029,-4.252 4.2511,-4.2526 2.3485,-2e-4 4.2526,1.9038 4.2526,4.2526 -6e-4,2.3482 -1.9043,4.2511 -4.2526,4.2511 -2.3476,-6e-4 -4.2505,-1.9035 -4.2511,-4.2511 z"
       style="fill:none;fill-rule:evenodd;stroke:#000000;stroke-width:5;stroke-linecap:butt;stroke-linejoin:round;stroke-dasharray:none;fill-opacity:1;stroke-opacity:1;stroke-miterlimit:4"
       id="path45"
       inkscape:connector-curvature="0" />
    <path
       d="m 961.1328,569.0551 c -3e-4,-2.3488 1.9038,-4.2525 4.2526,-4.2525 2.3487,-3e-4 4.2528,1.9037 4.2525,4.2525 -6e-4,2.3482 -1.9043,4.2511 -4.2525,4.2511 -2.3483,3e-4 -4.2517,-1.9029 -4.2526,-4.2511 z"
       style="fill:none;fill-rule:evenodd;stroke:#000000;stroke-width:5;stroke-linecap:butt;stroke-linejoin:round;stroke-dasharray:none;fill-opacity:1;stroke-opacity:1;stroke-miterlimit:4"
       id="path47"
       inkscape:connector-curvature="0" />
    <path
       d="m 504.7563,458.5034 c -3e-4,-2.3483 1.9029,-4.252 4.2511,-4.2526 2.3488,-2e-4 4.2528,1.9038 4.2525,4.2526 -5e-4,2.3482 -1.9043,4.2511 -4.2525,4.2511 -2.3477,-6e-4 -4.2505,-1.9035 -4.2511,-4.2511 z"
       style="fill:none;fill-rule:evenodd;stroke:#000000;stroke-width:5;stroke-linecap:butt;stroke-linejoin:round;stroke-dasharray:none;fill-opacity:1;stroke-opacity:1;stroke-miterlimit:4"
       id="path49"
       inkscape:connector-curvature="0" />
    <path
       d="m 504.7563,569.0537 c 6e-4,-2.3477 1.9034,-4.2506 4.2511,-4.2511 2.3482,-3e-4 4.252,1.9029 4.2525,4.2511 3e-4,2.3485 -1.9037,4.2525 -4.2525,4.2525 -2.3482,-5e-4 -4.2511,-1.9043 -4.2511,-4.2525 z"
       style="fill:none;fill-rule:evenodd;stroke:#000000;stroke-width:5;stroke-linecap:butt;stroke-linejoin:round;stroke-dasharray:none;fill-opacity:1;stroke-opacity:1;stroke-miterlimit:4"
       id="path51"
       inkscape:connector-curvature="0" />
  </g>
  <g
     id="Layer1004"
     style="fill:none;fill-opacity:1;stroke:#000000;stroke-opacity:1;stroke-width:5;stroke-miterlimit:4;stroke-dasharray:none">
    <path
       d="m 978.141,593.1505 c 0,-4.7112 -4.0298,-8.5048 -9.0352,-8.5048 H 575.6814 v 28.3461 h 374.1134 v 85.0386 H 575.6814 v 28.3476 h 393.4244 c 5.0057,0 9.0352,-3.7922 9.0352,-8.5034 z m -17.0082,117.6369 c -3e-4,-2.3488 1.9038,-4.2525 4.2526,-4.2525 2.3487,-3e-4 4.2528,1.9037 4.2525,4.2525 -6e-4,2.3482 -1.9043,4.2511 -4.2525,4.2511 -2.3483,3e-4 -4.2517,-1.9029 -4.2526,-4.2511 z m 0,-110.5517 c -3e-4,-2.3483 1.9029,-4.252 4.2511,-4.2526 2.3485,-3e-4 4.2526,1.9038 4.2526,4.2526 -6e-4,2.3482 -1.9043,4.2511 -4.2526,4.2511 -2.3476,-6e-4 -4.2505,-1.9035 -4.2511,-4.2511 z"
       style="fill:none;fill-rule:evenodd;stroke:#000000;stroke-width:5;stroke-linecap:butt;stroke-linejoin:round;stroke-dasharray:none;fill-opacity:1;stroke-opacity:1;stroke-miterlimit:4"
       id="path54"
       inkscape:connector-curvature="0" />
    <path
       d="m 535.9368,698.0304 h -11.338 V 686.694 612.9918 h 11.338 v -28.3461 h -30.6504 c -5.0057,0 -9.0352,3.7936 -9.0352,8.5048 v 93.5435 31.1806 c 0,4.7112 4.0295,8.5034 9.0352,8.5034 h 30.6504 z"
       style="fill:none;fill-rule:evenodd;stroke:#000000;stroke-width:5;stroke-linecap:butt;stroke-linejoin:round;stroke-dasharray:none;fill-opacity:1;stroke-opacity:1;stroke-miterlimit:4"
       id="path56"
       inkscape:connector-curvature="0" />
    <path
       d="m 961.1328,600.2357 c -3e-4,-2.3483 1.9029,-4.252 4.2511,-4.2526 2.3485,-3e-4 4.2526,1.9038 4.2526,4.2526 -6e-4,2.3482 -1.9043,4.2511 -4.2526,4.2511 -2.3476,-6e-4 -4.2505,-1.9035 -4.2511,-4.2511 z"
       style="fill:none;fill-rule:evenodd;stroke:#000000;stroke-width:5;stroke-linecap:butt;stroke-linejoin:round;stroke-dasharray:none;fill-opacity:1;stroke-opacity:1;stroke-miterlimit:4"
       id="path58"
       inkscape:connector-curvature="0" />
    <path
       d="m 961.1328,710.7874 c -3e-4,-2.3488 1.9038,-4.2525 4.2526,-4.2525 2.3487,-3e-4 4.2528,1.9037 4.2525,4.2525 -6e-4,2.3482 -1.9043,4.2511 -4.2525,4.2511 -2.3483,3e-4 -4.2517,-1.9029 -4.2526,-4.2511 z"
       style="fill:none;fill-rule:evenodd;stroke:#000000;stroke-width:5;stroke-linecap:butt;stroke-linejoin:round;stroke-dasharray:none;fill-opacity:1;stroke-opacity:1;stroke-miterlimit:4"
       id="path60"
       inkscape:connector-curvature="0" />
    <path
       d="m 504.7563,600.2357 c -3e-4,-2.3483 1.9029,-4.252 4.2511,-4.2526 2.3488,-3e-4 4.2528,1.9038 4.2525,4.2526 -5e-4,2.3482 -1.9043,4.2511 -4.2525,4.2511 -2.3477,-6e-4 -4.2505,-1.9035 -4.2511,-4.2511 z"
       style="fill:none;fill-rule:evenodd;stroke:#000000;stroke-width:5;stroke-linecap:butt;stroke-linejoin:round;stroke-dasharray:none;fill-opacity:1;stroke-opacity:1;stroke-miterlimit:4"
       id="path62"
       inkscape:connector-curvature="0" />
    <path
       d="m 504.7563,710.786 c 6e-4,-2.3477 1.9034,-4.2506 4.2511,-4.2511 2.3482,-3e-4 4.252,1.9029 4.2525,4.2511 3e-4,2.3485 -1.9037,4.2525 -4.2525,4.2525 -2.3482,-5e-4 -4.2511,-1.9043 -4.2511,-4.2525 z"
       style="fill:none;fill-rule:evenodd;stroke:#000000;stroke-width:5;stroke-linecap:butt;stroke-linejoin:round;stroke-dasharray:none;fill-opacity:1;stroke-opacity:1;stroke-miterlimit:4"
       id="path64"
       inkscape:connector-curvature="0" />
  </g>
  <g
     id="Layer1005"
     style="fill:none;fill-opacity:1;stroke:#000000;stroke-opacity:1;stroke-width:5;stroke-miterlimit:4;stroke-dasharray:none">
    <path
       d="m 978.141,734.8827 c 0,-4.7111 -4.0298,-8.5047 -9.0352,-8.5047 H 575.6814 v 28.3461 h 374.1134 v 85.0385 H 575.6814 v 28.3476 h 393.4244 c 5.0057,0 9.0352,-3.7922 9.0352,-8.5033 z m -17.0082,117.637 c -3e-4,-2.3488 1.9038,-4.2526 4.2526,-4.2526 2.3487,-2e-4 4.2528,1.9038 4.2525,4.2526 -6e-4,2.3482 -1.9043,4.2511 -4.2525,4.2511 -2.3483,3e-4 -4.2517,-1.9029 -4.2526,-4.2511 z m 0,-110.5518 c -3e-4,-2.3482 1.9029,-4.2519 4.2511,-4.2525 2.3485,-3e-4 4.2526,1.9037 4.2526,4.2525 -6e-4,2.3483 -1.9043,4.2512 -4.2526,4.2512 -2.3476,-6e-4 -4.2505,-1.9035 -4.2511,-4.2512 z"
       style="fill:none;fill-rule:evenodd;stroke:#000000;stroke-width:5;stroke-linecap:butt;stroke-linejoin:round;stroke-dasharray:none;fill-opacity:1;stroke-opacity:1;stroke-miterlimit:4"
       id="path67"
       inkscape:connector-curvature="0" />
    <path
       d="m 535.9368,839.7626 h -11.338 v -11.3363 -73.7022 h 11.338 V 726.378 h -30.6504 c -5.0057,0 -9.0352,3.7936 -9.0352,8.5047 v 93.5436 31.1806 c 0,4.7111 4.0295,8.5033 9.0352,8.5033 h 30.6504 z"
       style="fill:none;fill-rule:evenodd;stroke:#000000;stroke-width:5;stroke-linecap:butt;stroke-linejoin:round;stroke-dasharray:none;fill-opacity:1;stroke-opacity:1;stroke-miterlimit:4"
       id="path69"
       inkscape:connector-curvature="0" />
    <path
       d="m 961.1328,741.9679 c -3e-4,-2.3482 1.9029,-4.2519 4.2511,-4.2525 2.3485,-3e-4 4.2526,1.9037 4.2526,4.2525 -6e-4,2.3483 -1.9043,4.2512 -4.2526,4.2512 -2.3476,-6e-4 -4.2505,-1.9035 -4.2511,-4.2512 z"
       style="fill:none;fill-rule:evenodd;stroke:#000000;stroke-width:5;stroke-linecap:butt;stroke-linejoin:round;stroke-dasharray:none;fill-opacity:1;stroke-opacity:1;stroke-miterlimit:4"
       id="path71"
       inkscape:connector-curvature="0" />
    <path
       d="m 961.1328,852.5197 c -3e-4,-2.3488 1.9038,-4.2526 4.2526,-4.2526 2.3487,-2e-4 4.2528,1.9038 4.2525,4.2526 -6e-4,2.3482 -1.9043,4.2511 -4.2525,4.2511 -2.3483,3e-4 -4.2517,-1.9029 -4.2526,-4.2511 z"
       style="fill:none;fill-rule:evenodd;stroke:#000000;stroke-width:5;stroke-linecap:butt;stroke-linejoin:round;stroke-dasharray:none;fill-opacity:1;stroke-opacity:1;stroke-miterlimit:4"
       id="path73"
       inkscape:connector-curvature="0" />
    <path
       d="m 504.7563,741.9679 c -3e-4,-2.3482 1.9029,-4.2519 4.2511,-4.2525 2.3488,-3e-4 4.2528,1.9037 4.2525,4.2525 -5e-4,2.3483 -1.9043,4.2512 -4.2525,4.2512 -2.3477,-6e-4 -4.2505,-1.9035 -4.2511,-4.2512 z"
       style="fill:none;fill-rule:evenodd;stroke:#000000;stroke-width:5;stroke-linecap:butt;stroke-linejoin:round;stroke-dasharray:none;fill-opacity:1;stroke-opacity:1;stroke-miterlimit:4"
       id="path75"
       inkscape:connector-curvature="0" />
    <path
       d="m 504.7563,852.5183 c 6e-4,-2.3477 1.9034,-4.2506 4.2511,-4.2512 2.3482,-2e-4 4.252,1.9029 4.2525,4.2512 3e-4,2.3485 -1.9037,4.2525 -4.2525,4.2525 -2.3482,-6e-4 -4.2511,-1.9043 -4.2511,-4.2525 z"
       style="fill:none;fill-rule:evenodd;stroke:#000000;stroke-width:5;stroke-linecap:butt;stroke-linejoin:round;stroke-dasharray:none;fill-opacity:1;stroke-opacity:1;stroke-miterlimit:4"
       id="path77"
       inkscape:connector-curvature="0" />
  </g>
  <g
     id="Layer1006"
     style="fill:none;fill-opacity:1;stroke:#000000;stroke-opacity:1;stroke-width:5;stroke-miterlimit:4;stroke-dasharray:none">
    <path
       d="m 978.141,876.615 c 0,-4.7112 -4.0298,-8.5048 -9.0352,-8.5048 H 575.6814 v 28.3462 h 374.1134 v 85.0385 H 575.6814 v 28.3476 h 393.4244 c 5.0057,0 9.0352,-3.7922 9.0352,-8.5034 z m -17.0082,117.637 c -3e-4,-2.3488 1.9038,-4.2526 4.2526,-4.2526 2.3487,-3e-4 4.2528,1.9038 4.2525,4.2526 -6e-4,2.3482 -1.9043,4.2511 -4.2525,4.2511 -2.3483,3e-4 -4.2517,-1.9029 -4.2526,-4.2511 z m 0,-110.5518 c -3e-4,-2.3482 1.9029,-4.2519 4.2511,-4.2525 2.3485,-3e-4 4.2526,1.9037 4.2526,4.2525 -6e-4,2.3482 -1.9043,4.2511 -4.2526,4.2511 -2.3476,-5e-4 -4.2505,-1.9034 -4.2511,-4.2511 z"
       style="fill:none;fill-rule:evenodd;stroke:#000000;stroke-width:5;stroke-linecap:butt;stroke-linejoin:round;stroke-dasharray:none;fill-opacity:1;stroke-opacity:1;stroke-miterlimit:4"
       id="path80"
       inkscape:connector-curvature="0" />
    <path
       d="m 535.9368,981.4949 h -11.338 v -11.3363 -73.7022 h 11.338 v -28.3462 h -30.6504 c -5.0057,0 -9.0352,3.7936 -9.0352,8.5048 v 93.5436 31.1805 c 0,4.7112 4.0295,8.5034 9.0352,8.5034 h 30.6504 z"
       style="fill:none;fill-rule:evenodd;stroke:#000000;stroke-width:5;stroke-linecap:butt;stroke-linejoin:round;stroke-dasharray:none;fill-opacity:1;stroke-opacity:1;stroke-miterlimit:4"
       id="path82"
       inkscape:connector-curvature="0" />
    <path
       d="m 961.1328,883.7002 c -3e-4,-2.3482 1.9029,-4.2519 4.2511,-4.2525 2.3485,-3e-4 4.2526,1.9037 4.2526,4.2525 -6e-4,2.3482 -1.9043,4.2511 -4.2526,4.2511 -2.3476,-5e-4 -4.2505,-1.9034 -4.2511,-4.2511 z"
       style="fill:none;fill-rule:evenodd;stroke:#000000;stroke-width:5;stroke-linecap:butt;stroke-linejoin:round;stroke-dasharray:none;fill-opacity:1;stroke-opacity:1;stroke-miterlimit:4"
       id="path84"
       inkscape:connector-curvature="0" />
    <path
       d="m 961.1328,994.252 c -3e-4,-2.3488 1.9038,-4.2526 4.2526,-4.2526 2.3487,-3e-4 4.2528,1.9038 4.2525,4.2526 -6e-4,2.3482 -1.9043,4.2511 -4.2525,4.2511 -2.3483,3e-4 -4.2517,-1.9029 -4.2526,-4.2511 z"
       style="fill:none;fill-rule:evenodd;stroke:#000000;stroke-width:5;stroke-linecap:butt;stroke-linejoin:round;stroke-dasharray:none;fill-opacity:1;stroke-opacity:1;stroke-miterlimit:4"
       id="path86"
       inkscape:connector-curvature="0" />
    <path
       d="m 504.7563,883.7002 c -3e-4,-2.3482 1.9029,-4.2519 4.2511,-4.2525 2.3488,-3e-4 4.2528,1.9037 4.2525,4.2525 -5e-4,2.3482 -1.9043,4.2511 -4.2525,4.2511 -2.3477,-5e-4 -4.2505,-1.9034 -4.2511,-4.2511 z"
       style="fill:none;fill-rule:evenodd;stroke:#000000;stroke-width:5;stroke-linecap:butt;stroke-linejoin:round;stroke-dasharray:none;fill-opacity:1;stroke-opacity:1;stroke-miterlimit:4"
       id="path88"
       inkscape:connector-curvature="0" />
    <path
       d="m 504.7563,994.2506 c 6e-4,-2.3477 1.9034,-4.2506 4.2511,-4.2512 2.3482,-3e-4 4.252,1.9029 4.2525,4.2512 3e-4,2.3485 -1.9037,4.2525 -4.2525,4.2525 -2.3482,-6e-4 -4.2511,-1.9043 -4.2511,-4.2525 z"
       style="fill:none;fill-rule:evenodd;stroke:#000000;stroke-width:5;stroke-linecap:butt;stroke-linejoin:round;stroke-dasharray:none;fill-opacity:1;stroke-opacity:1;stroke-miterlimit:4"
       id="path90"
       inkscape:connector-curvature="0" />
  </g>
  <g
     id="Layer1007"
     style="fill:none;fill-opacity:1;stroke:#000000;stroke-opacity:1;stroke-width:5;stroke-miterlimit:4;stroke-dasharray:none">
    <path
       d="m 978.141,1018.3473 c 0,-4.7112 -4.0298,-8.5048 -9.0352,-8.5048 H 575.6814 v 28.3462 h 374.1134 v 85.0385 H 575.6814 v 28.3476 h 393.4244 c 5.0057,0 9.0352,-3.7922 9.0352,-8.5034 z m -17.0082,117.637 c -3e-4,-2.3488 1.9038,-4.2526 4.2526,-4.2526 2.3487,-3e-4 4.2528,1.9038 4.2525,4.2526 -6e-4,2.3482 -1.9043,4.2511 -4.2525,4.2511 -2.3483,3e-4 -4.2517,-1.9029 -4.2526,-4.2511 z m 0,-110.5518 c -3e-4,-2.3482 1.9029,-4.252 4.2511,-4.2525 2.3485,-3e-4 4.2526,1.9037 4.2526,4.2525 -6e-4,2.3482 -1.9043,4.2511 -4.2526,4.2511 -2.3476,-5e-4 -4.2505,-1.9034 -4.2511,-4.2511 z"
       style="fill:none;fill-rule:evenodd;stroke:#000000;stroke-width:5;stroke-linecap:butt;stroke-linejoin:round;stroke-dasharray:none;fill-opacity:1;stroke-opacity:1;stroke-miterlimit:4"
       id="path93"
       inkscape:connector-curvature="0" />
    <path
       d="m 535.9368,1123.2272 h -11.338 v -11.3363 -73.7022 h 11.338 v -28.3462 h -30.6504 c -5.0057,0 -9.0352,3.7936 -9.0352,8.5048 v 93.5436 31.1805 c 0,4.7112 4.0295,8.5034 9.0352,8.5034 h 30.6504 z"
       style="fill:none;fill-rule:evenodd;stroke:#000000;stroke-width:5;stroke-linecap:butt;stroke-linejoin:round;stroke-dasharray:none;fill-opacity:1;stroke-opacity:1;stroke-miterlimit:4"
       id="path95"
       inkscape:connector-curvature="0" />
    <path
       d="m 961.1328,1025.4325 c -3e-4,-2.3482 1.9029,-4.252 4.2511,-4.2525 2.3485,-3e-4 4.2526,1.9037 4.2526,4.2525 -6e-4,2.3482 -1.9043,4.2511 -4.2526,4.2511 -2.3476,-5e-4 -4.2505,-1.9034 -4.2511,-4.2511 z"
       style="fill:none;fill-rule:evenodd;stroke:#000000;stroke-width:5;stroke-linecap:butt;stroke-linejoin:round;stroke-dasharray:none;fill-opacity:1;stroke-opacity:1;stroke-miterlimit:4"
       id="path97"
       inkscape:connector-curvature="0" />
    <path
       d="m 961.1328,1135.9843 c -3e-4,-2.3488 1.9038,-4.2526 4.2526,-4.2526 2.3487,-3e-4 4.2528,1.9038 4.2525,4.2526 -6e-4,2.3482 -1.9043,4.2511 -4.2525,4.2511 -2.3483,3e-4 -4.2517,-1.9029 -4.2526,-4.2511 z"
       style="fill:none;fill-rule:evenodd;stroke:#000000;stroke-width:5;stroke-linecap:butt;stroke-linejoin:round;stroke-dasharray:none;fill-opacity:1;stroke-opacity:1;stroke-miterlimit:4"
       id="path99"
       inkscape:connector-curvature="0" />
    <path
       d="m 504.7563,1025.4325 c -3e-4,-2.3482 1.9029,-4.252 4.2511,-4.2525 2.3488,-3e-4 4.2528,1.9037 4.2525,4.2525 -5e-4,2.3482 -1.9043,4.2511 -4.2525,4.2511 -2.3477,-5e-4 -4.2505,-1.9034 -4.2511,-4.2511 z"
       style="fill:none;fill-rule:evenodd;stroke:#000000;stroke-width:5;stroke-linecap:butt;stroke-linejoin:round;stroke-dasharray:none;fill-opacity:1;stroke-opacity:1;stroke-miterlimit:4"
       id="path101"
       inkscape:connector-curvature="0" />
    <path
       d="m 504.7563,1135.9828 c 6e-4,-2.3476 1.9034,-4.2505 4.2511,-4.2511 2.3482,-3e-4 4.252,1.9029 4.2525,4.2511 3e-4,2.3485 -1.9037,4.2526 -4.2525,4.2526 -2.3482,-6e-4 -4.2511,-1.9043 -4.2511,-4.2526 z"
       style="fill:none;fill-rule:evenodd;stroke:#000000;stroke-width:5;stroke-linecap:butt;stroke-linejoin:round;stroke-dasharray:none;fill-opacity:1;stroke-opacity:1;stroke-miterlimit:4"
       id="path103"
       inkscape:connector-curvature="0" />
  </g>
  <g
     id="Layer1008"
     style="fill:none;fill-opacity:1;stroke:#000000;stroke-opacity:1;stroke-width:5;stroke-miterlimit:4;stroke-dasharray:none">
    <path
       d="m 1460.0307,26.2213 c 0,-4.7112 -4.0297,-8.5048 -9.0351,-8.5048 h -393.4245 v 28.3462 h 374.1135 v 85.0385 h -374.1135 v 28.3476 h 393.4245 c 5.0057,0 9.0351,-3.7922 9.0351,-8.5034 z m -17.0081,117.637 c -3e-4,-2.3488 1.9037,-4.2526 4.2525,-4.2526 2.3488,-3e-4 4.2528,1.9038 4.2526,4.2526 -6e-4,2.3482 -1.9044,4.2511 -4.2526,4.2511 -2.3482,3e-4 -4.2517,-1.9029 -4.2525,-4.2511 z m 0,-110.5518 c -3e-4,-2.3482 1.9029,-4.2519 4.2511,-4.2525 2.3485,-3e-4 4.2525,1.9037 4.2525,4.2525 -5e-4,2.3482 -1.9043,4.2511 -4.2525,4.2511 -2.3477,-5e-4 -4.2506,-1.9034 -4.2511,-4.2511 z"
       style="fill:none;fill-rule:evenodd;stroke:#000000;stroke-width:5;stroke-linecap:butt;stroke-linejoin:round;stroke-dasharray:none;fill-opacity:1;stroke-opacity:1;stroke-miterlimit:4"
       id="path106"
       inkscape:connector-curvature="0" />
    <path
       d="m 1017.8266,131.1012 h -11.338 V 119.7649 46.0627 h 11.338 V 17.7165 h -30.6505 c -5.0057,0 -9.0351,3.7936 -9.0351,8.5048 v 93.5436 31.1805 c 0,4.7112 4.0294,8.5034 9.0351,8.5034 h 30.6505 z"
       style="fill:none;fill-rule:evenodd;stroke:#000000;stroke-width:5;stroke-linecap:butt;stroke-linejoin:round;stroke-dasharray:none;fill-opacity:1;stroke-opacity:1;stroke-miterlimit:4"
       id="path108"
       inkscape:connector-curvature="0" />
    <path
       d="m 1443.0226,33.3065 c -3e-4,-2.3482 1.9029,-4.2519 4.2511,-4.2525 2.3485,-3e-4 4.2525,1.9037 4.2525,4.2525 -5e-4,2.3482 -1.9043,4.2511 -4.2525,4.2511 -2.3477,-5e-4 -4.2506,-1.9034 -4.2511,-4.2511 z"
       style="fill:none;fill-rule:evenodd;stroke:#000000;stroke-width:5;stroke-linecap:butt;stroke-linejoin:round;stroke-dasharray:none;fill-opacity:1;stroke-opacity:1;stroke-miterlimit:4"
       id="path110"
       inkscape:connector-curvature="0" />
    <path
       d="m 1443.0226,143.8583 c -3e-4,-2.3488 1.9037,-4.2526 4.2525,-4.2526 2.3488,-3e-4 4.2528,1.9038 4.2526,4.2526 -6e-4,2.3482 -1.9044,4.2511 -4.2526,4.2511 -2.3482,3e-4 -4.2517,-1.9029 -4.2525,-4.2511 z"
       style="fill:none;fill-rule:evenodd;stroke:#000000;stroke-width:5;stroke-linecap:butt;stroke-linejoin:round;stroke-dasharray:none;fill-opacity:1;stroke-opacity:1;stroke-miterlimit:4"
       id="path112"
       inkscape:connector-curvature="0" />
    <path
       d="m 986.646,33.3065 c -2e-4,-2.3482 1.9029,-4.2519 4.2512,-4.2525 2.3488,-3e-4 4.2528,1.9037 4.2525,4.2525 -6e-4,2.3482 -1.9043,4.2511 -4.2525,4.2511 -2.3477,-5e-4 -4.2506,-1.9034 -4.2512,-4.2511 z"
       style="fill:none;fill-rule:evenodd;stroke:#000000;stroke-width:5;stroke-linecap:butt;stroke-linejoin:round;stroke-dasharray:none;fill-opacity:1;stroke-opacity:1;stroke-miterlimit:4"
       id="path114"
       inkscape:connector-curvature="0" />
    <path
       d="m 986.646,143.8569 c 6e-4,-2.3477 1.9035,-4.2506 4.2512,-4.2512 2.3482,-3e-4 4.2519,1.9029 4.2525,4.2512 3e-4,2.3485 -1.9037,4.2525 -4.2525,4.2525 -2.3483,-6e-4 -4.2512,-1.9043 -4.2512,-4.2525 z"
       style="fill:none;fill-rule:evenodd;stroke:#000000;stroke-width:5;stroke-linecap:butt;stroke-linejoin:round;stroke-dasharray:none;fill-opacity:1;stroke-opacity:1;stroke-miterlimit:4"
       id="path116"
       inkscape:connector-curvature="0" />
  </g>
  <g
     id="Layer1009"
     style="fill:none;fill-opacity:1;stroke:#000000;stroke-opacity:1;stroke-width:5;stroke-miterlimit:4;stroke-dasharray:none">
    <path
       d="m 1460.0307,167.9536 c 0,-4.7112 -4.0297,-8.5048 -9.0351,-8.5048 h -393.4245 v 28.3462 h 374.1135 v 85.0385 h -374.1135 v 28.3476 h 393.4245 c 5.0057,0 9.0351,-3.7922 9.0351,-8.5034 z m -17.0081,117.637 c -3e-4,-2.3488 1.9037,-4.2526 4.2525,-4.2526 2.3488,-3e-4 4.2528,1.9038 4.2526,4.2526 -6e-4,2.3482 -1.9044,4.2511 -4.2526,4.2511 -2.3482,3e-4 -4.2517,-1.9029 -4.2525,-4.2511 z m 0,-110.5518 c -3e-4,-2.3482 1.9029,-4.252 4.2511,-4.2525 2.3485,-3e-4 4.2525,1.9037 4.2525,4.2525 -5e-4,2.3482 -1.9043,4.2511 -4.2525,4.2511 -2.3477,-5e-4 -4.2506,-1.9034 -4.2511,-4.2511 z"
       style="fill:none;fill-rule:evenodd;stroke:#000000;stroke-width:5;stroke-linecap:butt;stroke-linejoin:round;stroke-dasharray:none;fill-opacity:1;stroke-opacity:1;stroke-miterlimit:4"
       id="path119"
       inkscape:connector-curvature="0" />
    <path
       d="m 1017.8266,272.8335 h -11.338 V 261.4972 187.795 h 11.338 v -28.3462 h -30.6505 c -5.0057,0 -9.0351,3.7936 -9.0351,8.5048 v 93.5436 31.1805 c 0,4.7112 4.0294,8.5034 9.0351,8.5034 h 30.6505 z"
       style="fill:none;fill-rule:evenodd;stroke:#000000;stroke-width:5;stroke-linecap:butt;stroke-linejoin:round;stroke-dasharray:none;fill-opacity:1;stroke-opacity:1;stroke-miterlimit:4"
       id="path121"
       inkscape:connector-curvature="0" />
    <path
       d="m 1443.0226,175.0388 c -3e-4,-2.3482 1.9029,-4.252 4.2511,-4.2525 2.3485,-3e-4 4.2525,1.9037 4.2525,4.2525 -5e-4,2.3482 -1.9043,4.2511 -4.2525,4.2511 -2.3477,-5e-4 -4.2506,-1.9034 -4.2511,-4.2511 z"
       style="fill:none;fill-rule:evenodd;stroke:#000000;stroke-width:5;stroke-linecap:butt;stroke-linejoin:round;stroke-dasharray:none;fill-opacity:1;stroke-opacity:1;stroke-miterlimit:4"
       id="path123"
       inkscape:connector-curvature="0" />
    <path
       d="m 1443.0226,285.5906 c -3e-4,-2.3488 1.9037,-4.2526 4.2525,-4.2526 2.3488,-3e-4 4.2528,1.9038 4.2526,4.2526 -6e-4,2.3482 -1.9044,4.2511 -4.2526,4.2511 -2.3482,3e-4 -4.2517,-1.9029 -4.2525,-4.2511 z"
       style="fill:none;fill-rule:evenodd;stroke:#000000;stroke-width:5;stroke-linecap:butt;stroke-linejoin:round;stroke-dasharray:none;fill-opacity:1;stroke-opacity:1;stroke-miterlimit:4"
       id="path125"
       inkscape:connector-curvature="0" />
    <path
       d="m 986.646,175.0388 c -2e-4,-2.3482 1.9029,-4.252 4.2512,-4.2525 2.3488,-3e-4 4.2528,1.9037 4.2525,4.2525 -6e-4,2.3482 -1.9043,4.2511 -4.2525,4.2511 -2.3477,-5e-4 -4.2506,-1.9034 -4.2512,-4.2511 z"
       style="fill:none;fill-rule:evenodd;stroke:#000000;stroke-width:5;stroke-linecap:butt;stroke-linejoin:round;stroke-dasharray:none;fill-opacity:1;stroke-opacity:1;stroke-miterlimit:4"
       id="path127"
       inkscape:connector-curvature="0" />
    <path
       d="m 986.646,285.5891 c 6e-4,-2.3476 1.9035,-4.2505 4.2512,-4.2511 2.3482,-3e-4 4.2519,1.9029 4.2525,4.2511 3e-4,2.3485 -1.9037,4.2526 -4.2525,4.2526 -2.3483,-6e-4 -4.2512,-1.9043 -4.2512,-4.2526 z"
       style="fill:none;fill-rule:evenodd;stroke:#000000;stroke-width:5;stroke-linecap:butt;stroke-linejoin:round;stroke-dasharray:none;fill-opacity:1;stroke-opacity:1;stroke-miterlimit:4"
       id="path129"
       inkscape:connector-curvature="0" />
  </g>
  <g
     id="Layer1010"
     style="fill:none;fill-opacity:1;stroke:#000000;stroke-opacity:1;stroke-width:5;stroke-miterlimit:4;stroke-dasharray:none">
    <path
       d="m 1460.0307,309.6859 c 0,-4.7112 -4.0297,-8.5048 -9.0351,-8.5048 h -393.4245 v 28.3462 h 374.1135 v 85.0385 h -374.1135 v 28.3476 h 393.4245 c 5.0057,0 9.0351,-3.7922 9.0351,-8.5034 z m -17.0081,117.6369 c -3e-4,-2.3488 1.9037,-4.2525 4.2525,-4.2525 2.3488,-3e-4 4.2528,1.9037 4.2526,4.2525 -6e-4,2.3483 -1.9044,4.2512 -4.2526,4.2512 -2.3482,2e-4 -4.2517,-1.9029 -4.2525,-4.2512 z m 0,-110.5517 c -3e-4,-2.3482 1.9029,-4.252 4.2511,-4.2525 2.3485,-3e-4 4.2525,1.9037 4.2525,4.2525 -5e-4,2.3482 -1.9043,4.2511 -4.2525,4.2511 -2.3477,-6e-4 -4.2506,-1.9035 -4.2511,-4.2511 z"
       style="fill:none;fill-rule:evenodd;stroke:#000000;stroke-width:5;stroke-linecap:butt;stroke-linejoin:round;stroke-dasharray:none;fill-opacity:1;stroke-opacity:1;stroke-miterlimit:4"
       id="path132"
       inkscape:connector-curvature="0" />
    <path
       d="m 1017.8266,414.5658 h -11.338 v -11.3363 -73.7022 h 11.338 v -28.3462 h -30.6505 c -5.0057,0 -9.0351,3.7936 -9.0351,8.5048 v 93.5436 31.1805 c 0,4.7112 4.0294,8.5034 9.0351,8.5034 h 30.6505 z"
       style="fill:none;fill-rule:evenodd;stroke:#000000;stroke-width:5;stroke-linecap:butt;stroke-linejoin:round;stroke-dasharray:none;fill-opacity:1;stroke-opacity:1;stroke-miterlimit:4"
       id="path134"
       inkscape:connector-curvature="0" />
    <path
       d="m 1443.0226,316.7711 c -3e-4,-2.3482 1.9029,-4.252 4.2511,-4.2525 2.3485,-3e-4 4.2525,1.9037 4.2525,4.2525 -5e-4,2.3482 -1.9043,4.2511 -4.2525,4.2511 -2.3477,-6e-4 -4.2506,-1.9035 -4.2511,-4.2511 z"
       style="fill:none;fill-rule:evenodd;stroke:#000000;stroke-width:5;stroke-linecap:butt;stroke-linejoin:round;stroke-dasharray:none;fill-opacity:1;stroke-opacity:1;stroke-miterlimit:4"
       id="path136"
       inkscape:connector-curvature="0" />
    <path
       d="m 1443.0226,427.3228 c -3e-4,-2.3488 1.9037,-4.2525 4.2525,-4.2525 2.3488,-3e-4 4.2528,1.9037 4.2526,4.2525 -6e-4,2.3483 -1.9044,4.2512 -4.2526,4.2512 -2.3482,2e-4 -4.2517,-1.9029 -4.2525,-4.2512 z"
       style="fill:none;fill-rule:evenodd;stroke:#000000;stroke-width:5;stroke-linecap:butt;stroke-linejoin:round;stroke-dasharray:none;fill-opacity:1;stroke-opacity:1;stroke-miterlimit:4"
       id="path138"
       inkscape:connector-curvature="0" />
    <path
       d="m 986.646,316.7711 c -2e-4,-2.3482 1.9029,-4.252 4.2512,-4.2525 2.3488,-3e-4 4.2528,1.9037 4.2525,4.2525 -6e-4,2.3482 -1.9043,4.2511 -4.2525,4.2511 -2.3477,-6e-4 -4.2506,-1.9035 -4.2512,-4.2511 z"
       style="fill:none;fill-rule:evenodd;stroke:#000000;stroke-width:5;stroke-linecap:butt;stroke-linejoin:round;stroke-dasharray:none;fill-opacity:1;stroke-opacity:1;stroke-miterlimit:4"
       id="path140"
       inkscape:connector-curvature="0" />
    <path
       d="m 986.646,427.3214 c 6e-4,-2.3476 1.9035,-4.2505 4.2512,-4.2511 2.3482,-3e-4 4.2519,1.9029 4.2525,4.2511 3e-4,2.3485 -1.9037,4.2526 -4.2525,4.2526 -2.3483,-6e-4 -4.2512,-1.9044 -4.2512,-4.2526 z"
       style="fill:none;fill-rule:evenodd;stroke:#000000;stroke-width:5;stroke-linecap:butt;stroke-linejoin:round;stroke-dasharray:none;fill-opacity:1;stroke-opacity:1;stroke-miterlimit:4"
       id="path142"
       inkscape:connector-curvature="0" />
  </g>
  <g
     id="Layer1011"
     style="fill:none;fill-opacity:1;stroke:#000000;stroke-opacity:1;stroke-width:5;stroke-miterlimit:4;stroke-dasharray:none">
    <path
       d="m 1460.0307,451.4182 c 0,-4.7112 -4.0297,-8.5048 -9.0351,-8.5048 h -393.4245 v 28.3462 h 374.1135 v 85.0385 h -374.1135 v 28.3476 h 393.4245 c 5.0057,0 9.0351,-3.7922 9.0351,-8.5034 z m -17.0081,117.6369 c -3e-4,-2.3488 1.9037,-4.2525 4.2525,-4.2525 2.3488,-3e-4 4.2528,1.9037 4.2526,4.2525 -6e-4,2.3482 -1.9044,4.2511 -4.2526,4.2511 -2.3482,3e-4 -4.2517,-1.9029 -4.2525,-4.2511 z m 0,-110.5517 c -3e-4,-2.3483 1.9029,-4.252 4.2511,-4.2526 2.3485,-2e-4 4.2525,1.9038 4.2525,4.2526 -5e-4,2.3482 -1.9043,4.2511 -4.2525,4.2511 -2.3477,-6e-4 -4.2506,-1.9035 -4.2511,-4.2511 z"
       style="fill:none;fill-rule:evenodd;stroke:#000000;stroke-width:5;stroke-linecap:butt;stroke-linejoin:round;stroke-dasharray:none;fill-opacity:1;stroke-opacity:1;stroke-miterlimit:4"
       id="path145"
       inkscape:connector-curvature="0" />
    <path
       d="m 1017.8266,556.2981 h -11.338 v -11.3363 -73.7022 h 11.338 v -28.3462 h -30.6505 c -5.0057,0 -9.0351,3.7936 -9.0351,8.5048 v 93.5436 31.1805 c 0,4.7112 4.0294,8.5034 9.0351,8.5034 h 30.6505 z"
       style="fill:none;fill-rule:evenodd;stroke:#000000;stroke-width:5;stroke-linecap:butt;stroke-linejoin:round;stroke-dasharray:none;fill-opacity:1;stroke-opacity:1;stroke-miterlimit:4"
       id="path147"
       inkscape:connector-curvature="0" />
    <path
       d="m 1443.0226,458.5034 c -3e-4,-2.3483 1.9029,-4.252 4.2511,-4.2526 2.3485,-2e-4 4.2525,1.9038 4.2525,4.2526 -5e-4,2.3482 -1.9043,4.2511 -4.2525,4.2511 -2.3477,-6e-4 -4.2506,-1.9035 -4.2511,-4.2511 z"
       style="fill:none;fill-rule:evenodd;stroke:#000000;stroke-width:5;stroke-linecap:butt;stroke-linejoin:round;stroke-dasharray:none;fill-opacity:1;stroke-opacity:1;stroke-miterlimit:4"
       id="path149"
       inkscape:connector-curvature="0" />
    <path
       d="m 1443.0226,569.0551 c -3e-4,-2.3488 1.9037,-4.2525 4.2525,-4.2525 2.3488,-3e-4 4.2528,1.9037 4.2526,4.2525 -6e-4,2.3482 -1.9044,4.2511 -4.2526,4.2511 -2.3482,3e-4 -4.2517,-1.9029 -4.2525,-4.2511 z"
       style="fill:none;fill-rule:evenodd;stroke:#000000;stroke-width:5;stroke-linecap:butt;stroke-linejoin:round;stroke-dasharray:none;fill-opacity:1;stroke-opacity:1;stroke-miterlimit:4"
       id="path151"
       inkscape:connector-curvature="0" />
    <path
       d="m 986.646,458.5034 c -2e-4,-2.3483 1.9029,-4.252 4.2512,-4.2526 2.3488,-2e-4 4.2528,1.9038 4.2525,4.2526 -6e-4,2.3482 -1.9043,4.2511 -4.2525,4.2511 -2.3477,-6e-4 -4.2506,-1.9035 -4.2512,-4.2511 z"
       style="fill:none;fill-rule:evenodd;stroke:#000000;stroke-width:5;stroke-linecap:butt;stroke-linejoin:round;stroke-dasharray:none;fill-opacity:1;stroke-opacity:1;stroke-miterlimit:4"
       id="path153"
       inkscape:connector-curvature="0" />
    <path
       d="m 986.646,569.0537 c 6e-4,-2.3477 1.9035,-4.2506 4.2512,-4.2511 2.3482,-3e-4 4.2519,1.9029 4.2525,4.2511 3e-4,2.3485 -1.9037,4.2525 -4.2525,4.2525 -2.3483,-5e-4 -4.2512,-1.9043 -4.2512,-4.2525 z"
       style="fill:none;fill-rule:evenodd;stroke:#000000;stroke-width:5;stroke-linecap:butt;stroke-linejoin:round;stroke-dasharray:none;fill-opacity:1;stroke-opacity:1;stroke-miterlimit:4"
       id="path155"
       inkscape:connector-curvature="0" />
  </g>
  <g
     id="Layer1012"
     style="fill:none;fill-opacity:1;stroke:#000000;stroke-opacity:1;stroke-width:5;stroke-miterlimit:4;stroke-dasharray:none">
    <path
       d="m 14.3614,717.8732 c 0,4.7111 4.0295,8.5048 9.0352,8.5048 l 463.8195,2e-4 c 5.0057,0 9.0351,-3.7939 9.0351,-8.505 V 593.149 c 0,-4.7111 -4.0294,-8.5033 -9.0351,-8.5033 H 23.3966 c -5.0057,0 -9.0352,3.7922 -9.0352,8.5033 z"
       style="fill:none;fill-rule:evenodd;stroke:#000000;stroke-width:5;stroke-linecap:butt;stroke-linejoin:round;stroke-dasharray:none;fill-opacity:1;stroke-opacity:1;stroke-miterlimit:4"
       id="path158"
       inkscape:connector-curvature="0" />
    <path
       d="M 42.7082,698.0315 V 612.993 l 425.196,-3e-4 v 85.0388 z"
       style="fill:none;fill-rule:evenodd;stroke:#000000;stroke-width:5;stroke-linecap:butt;stroke-linejoin:round;stroke-dasharray:none;fill-opacity:1;stroke-opacity:1;stroke-miterlimit:4"
       id="path160"
       inkscape:connector-curvature="0" />
    <path
       d="m 479.2431,600.2359 c -3e-4,-2.3482 1.9029,-4.2519 4.2511,-4.2525 2.3485,-3e-4 4.2525,1.9037 4.2525,4.2525 -6e-4,2.3483 -1.9043,4.2512 -4.2525,4.2512 -2.3477,-6e-4 -4.2506,-1.9035 -4.2511,-4.2512 z"
       style="fill:none;fill-rule:evenodd;stroke:#000000;stroke-width:5;stroke-linecap:butt;stroke-linejoin:round;stroke-dasharray:none;fill-opacity:1;stroke-opacity:1;stroke-miterlimit:4"
       id="path162"
       inkscape:connector-curvature="0" />
    <path
       d="m 479.2431,710.7877 c -3e-4,-2.3488 1.9037,-4.2526 4.2525,-4.2526 2.3488,-2e-4 4.2528,1.9038 4.2525,4.2526 -5e-4,2.3482 -1.9043,4.2511 -4.2525,4.2511 -2.3482,3e-4 -4.2517,-1.9029 -4.2525,-4.2511 z"
       style="fill:none;fill-rule:evenodd;stroke:#000000;stroke-width:5;stroke-linecap:butt;stroke-linejoin:round;stroke-dasharray:none;fill-opacity:1;stroke-opacity:1;stroke-miterlimit:4"
       id="path164"
       inkscape:connector-curvature="0" />
    <path
       d="m 22.8665,600.2359 c -3e-4,-2.3482 1.9029,-4.2519 4.2511,-4.2525 2.3488,-3e-4 4.2529,1.9037 4.2526,4.2525 -6e-4,2.3483 -1.9043,4.2512 -4.2526,4.2512 -2.3476,-6e-4 -4.2505,-1.9035 -4.2511,-4.2512 z"
       style="fill:none;fill-rule:evenodd;stroke:#000000;stroke-width:5;stroke-linecap:butt;stroke-linejoin:round;stroke-dasharray:none;fill-opacity:1;stroke-opacity:1;stroke-miterlimit:4"
       id="path166"
       inkscape:connector-curvature="0" />
    <path
       d="m 22.8665,710.7863 c 6e-4,-2.3477 1.9035,-4.2506 4.2511,-4.2512 2.3483,-2e-4 4.252,1.9029 4.2526,4.2512 3e-4,2.3485 -1.9038,4.2525 -4.2526,4.2525 -2.3482,-6e-4 -4.2511,-1.9043 -4.2511,-4.2525 z"
       style="fill:none;fill-rule:evenodd;stroke:#000000;stroke-width:5;stroke-linecap:butt;stroke-linejoin:round;stroke-dasharray:none;fill-opacity:1;stroke-opacity:1;stroke-miterlimit:4"
       id="path168"
       inkscape:connector-curvature="0" />
  </g>
  <g
     id="Layer1013"
     style="fill:none;fill-opacity:1;stroke:#000000;stroke-opacity:1;stroke-width:5;stroke-miterlimit:4;stroke-dasharray:none">
    <path
       d="m 14.3614,859.6054 c 0,4.7112 4.0295,8.5048 9.0352,8.5048 l 463.8195,3e-4 c 5.0057,0 9.0351,-3.7939 9.0351,-8.5051 V 734.8813 c 0,-4.7112 -4.0294,-8.5033 -9.0351,-8.5033 H 23.3966 c -5.0057,0 -9.0352,3.7921 -9.0352,8.5033 z"
       style="fill:none;fill-rule:evenodd;stroke:#000000;stroke-width:5;stroke-linecap:butt;stroke-linejoin:round;stroke-dasharray:none;fill-opacity:1;stroke-opacity:1;stroke-miterlimit:4"
       id="path171"
       inkscape:connector-curvature="0" />
    <path
       d="m 42.7082,839.7638 v -85.0385 l 425.196,-3e-4 v 85.0388 z"
       style="fill:none;fill-rule:evenodd;stroke:#000000;stroke-width:5;stroke-linecap:butt;stroke-linejoin:round;stroke-dasharray:none;fill-opacity:1;stroke-opacity:1;stroke-miterlimit:4"
       id="path173"
       inkscape:connector-curvature="0" />
    <path
       d="m 479.2431,741.9682 c -3e-4,-2.3482 1.9029,-4.2519 4.2511,-4.2525 2.3485,-3e-4 4.2525,1.9037 4.2525,4.2525 -6e-4,2.3482 -1.9043,4.2511 -4.2525,4.2511 -2.3477,-5e-4 -4.2506,-1.9034 -4.2511,-4.2511 z"
       style="fill:none;fill-rule:evenodd;stroke:#000000;stroke-width:5;stroke-linecap:butt;stroke-linejoin:round;stroke-dasharray:none;fill-opacity:1;stroke-opacity:1;stroke-miterlimit:4"
       id="path175"
       inkscape:connector-curvature="0" />
    <path
       d="m 479.2431,852.52 c -3e-4,-2.3488 1.9037,-4.2526 4.2525,-4.2526 2.3488,-3e-4 4.2528,1.9038 4.2525,4.2526 -5e-4,2.3482 -1.9043,4.2511 -4.2525,4.2511 -2.3482,3e-4 -4.2517,-1.9029 -4.2525,-4.2511 z"
       style="fill:none;fill-rule:evenodd;stroke:#000000;stroke-width:5;stroke-linecap:butt;stroke-linejoin:round;stroke-dasharray:none;fill-opacity:1;stroke-opacity:1;stroke-miterlimit:4"
       id="path177"
       inkscape:connector-curvature="0" />
    <path
       d="m 22.8665,741.9682 c -3e-4,-2.3482 1.9029,-4.2519 4.2511,-4.2525 2.3488,-3e-4 4.2529,1.9037 4.2526,4.2525 -6e-4,2.3482 -1.9043,4.2511 -4.2526,4.2511 -2.3476,-5e-4 -4.2505,-1.9034 -4.2511,-4.2511 z"
       style="fill:none;fill-rule:evenodd;stroke:#000000;stroke-width:5;stroke-linecap:butt;stroke-linejoin:round;stroke-dasharray:none;fill-opacity:1;stroke-opacity:1;stroke-miterlimit:4"
       id="path179"
       inkscape:connector-curvature="0" />
    <path
       d="m 22.8665,852.5186 c 6e-4,-2.3477 1.9035,-4.2506 4.2511,-4.2512 2.3483,-3e-4 4.252,1.9029 4.2526,4.2512 3e-4,2.3485 -1.9038,4.2525 -4.2526,4.2525 -2.3482,-6e-4 -4.2511,-1.9043 -4.2511,-4.2525 z"
       style="fill:none;fill-rule:evenodd;stroke:#000000;stroke-width:5;stroke-linecap:butt;stroke-linejoin:round;stroke-dasharray:none;fill-opacity:1;stroke-opacity:1;stroke-miterlimit:4"
       id="path181"
       inkscape:connector-curvature="0" />
  </g>
  <g
     id="Layer1014"
     style="fill:none;fill-opacity:1;stroke:#000000;stroke-opacity:1;stroke-width:5;stroke-miterlimit:4;stroke-dasharray:none">
    <path
       d="m 14.3614,1001.3374 c 0,4.7112 4.0295,8.5048 9.0352,8.5048 l 463.8195,3e-4 c 5.0057,0 9.0351,-3.7939 9.0351,-8.5051 V 876.6133 c 0,-4.7112 -4.0294,-8.5033 -9.0351,-8.5033 H 23.3966 c -5.0057,0 -9.0352,3.7921 -9.0352,8.5033 z"
       style="fill:none;fill-rule:evenodd;stroke:#000000;stroke-width:5;stroke-linecap:butt;stroke-linejoin:round;stroke-dasharray:none;fill-opacity:1;stroke-opacity:1;stroke-miterlimit:4"
       id="path184"
       inkscape:connector-curvature="0" />
    <path
       d="m 42.7082,981.4958 v -85.0385 l 425.196,-3e-4 v 85.0388 z"
       style="fill:none;fill-rule:evenodd;stroke:#000000;stroke-width:5;stroke-linecap:butt;stroke-linejoin:round;stroke-dasharray:none;fill-opacity:1;stroke-opacity:1;stroke-miterlimit:4"
       id="path186"
       inkscape:connector-curvature="0" />
    <path
       d="m 479.2431,883.7002 c -3e-4,-2.3482 1.9029,-4.2519 4.2511,-4.2525 2.3485,-3e-4 4.2525,1.9037 4.2525,4.2525 -6e-4,2.3482 -1.9043,4.2511 -4.2525,4.2511 -2.3477,-5e-4 -4.2506,-1.9034 -4.2511,-4.2511 z"
       style="fill:none;fill-rule:evenodd;stroke:#000000;stroke-width:5;stroke-linecap:butt;stroke-linejoin:round;stroke-dasharray:none;fill-opacity:1;stroke-opacity:1;stroke-miterlimit:4"
       id="path188"
       inkscape:connector-curvature="0" />
    <path
       d="m 479.2431,994.252 c -3e-4,-2.3488 1.9037,-4.2526 4.2525,-4.2526 2.3488,-3e-4 4.2528,1.9038 4.2525,4.2526 -5e-4,2.3482 -1.9043,4.2511 -4.2525,4.2511 -2.3482,3e-4 -4.2517,-1.9029 -4.2525,-4.2511 z"
       style="fill:none;fill-rule:evenodd;stroke:#000000;stroke-width:5;stroke-linecap:butt;stroke-linejoin:round;stroke-dasharray:none;fill-opacity:1;stroke-opacity:1;stroke-miterlimit:4"
       id="path190"
       inkscape:connector-curvature="0" />
    <path
       d="m 22.8665,883.7002 c -3e-4,-2.3482 1.9029,-4.2519 4.2511,-4.2525 2.3488,-3e-4 4.2529,1.9037 4.2526,4.2525 -6e-4,2.3482 -1.9043,4.2511 -4.2526,4.2511 -2.3476,-5e-4 -4.2505,-1.9034 -4.2511,-4.2511 z"
       style="fill:none;fill-rule:evenodd;stroke:#000000;stroke-width:5;stroke-linecap:butt;stroke-linejoin:round;stroke-dasharray:none;fill-opacity:1;stroke-opacity:1;stroke-miterlimit:4"
       id="path192"
       inkscape:connector-curvature="0" />
    <path
       d="m 22.8665,994.2506 c 6e-4,-2.3477 1.9035,-4.2506 4.2511,-4.2512 2.3483,-3e-4 4.252,1.9029 4.2526,4.2512 3e-4,2.3485 -1.9038,4.2525 -4.2526,4.2525 -2.3482,-6e-4 -4.2511,-1.9043 -4.2511,-4.2525 z"
       style="fill:none;fill-rule:evenodd;stroke:#000000;stroke-width:5;stroke-linecap:butt;stroke-linejoin:round;stroke-dasharray:none;fill-opacity:1;stroke-opacity:1;stroke-miterlimit:4"
       id="path194"
       inkscape:connector-curvature="0" />
  </g>
  <g
     id="Layer1015"
     style="fill:none;fill-opacity:1;stroke:#000000;stroke-opacity:1;stroke-width:5;stroke-miterlimit:4;stroke-dasharray:none">
    <path
       d="m 14.3614,1143.0697 c 0,4.7112 4.0295,8.5048 9.0352,8.5048 l 463.8195,3e-4 c 5.0057,0 9.0351,-3.7939 9.0351,-8.5051 v -124.7241 c 0,-4.7112 -4.0294,-8.5034 -9.0351,-8.5034 H 23.3966 c -5.0057,0 -9.0352,3.7922 -9.0352,8.5034 z"
       style="fill:none;fill-rule:evenodd;stroke:#000000;stroke-width:5;stroke-linecap:butt;stroke-linejoin:round;stroke-dasharray:none;fill-opacity:1;stroke-opacity:1;stroke-miterlimit:4"
       id="path197"
       inkscape:connector-curvature="0" />
    <path
       d="m 42.7082,1123.2281 v -85.0386 l 425.196,-2e-4 v 85.0388 z"
       style="fill:none;fill-rule:evenodd;stroke:#000000;stroke-width:5;stroke-linecap:butt;stroke-linejoin:round;stroke-dasharray:none;fill-opacity:1;stroke-opacity:1;stroke-miterlimit:4"
       id="path199"
       inkscape:connector-curvature="0" />
    <path
       d="m 479.2431,1025.4325 c -3e-4,-2.3482 1.9029,-4.252 4.2511,-4.2525 2.3485,-3e-4 4.2525,1.9037 4.2525,4.2525 -6e-4,2.3482 -1.9043,4.2511 -4.2525,4.2511 -2.3477,-5e-4 -4.2506,-1.9034 -4.2511,-4.2511 z"
       style="fill:none;fill-rule:evenodd;stroke:#000000;stroke-width:5;stroke-linecap:butt;stroke-linejoin:round;stroke-dasharray:none;fill-opacity:1;stroke-opacity:1;stroke-miterlimit:4"
       id="path201"
       inkscape:connector-curvature="0" />
    <path
       d="m 479.2431,1135.9843 c -3e-4,-2.3488 1.9037,-4.2526 4.2525,-4.2526 2.3488,-3e-4 4.2528,1.9038 4.2525,4.2526 -5e-4,2.3482 -1.9043,4.2511 -4.2525,4.2511 -2.3482,3e-4 -4.2517,-1.9029 -4.2525,-4.2511 z"
       style="fill:none;fill-rule:evenodd;stroke:#000000;stroke-width:5;stroke-linecap:butt;stroke-linejoin:round;stroke-dasharray:none;fill-opacity:1;stroke-opacity:1;stroke-miterlimit:4"
       id="path203"
       inkscape:connector-curvature="0" />
    <path
       d="m 22.8665,1025.4325 c -3e-4,-2.3482 1.9029,-4.252 4.2511,-4.2525 2.3488,-3e-4 4.2529,1.9037 4.2526,4.2525 -6e-4,2.3482 -1.9043,4.2511 -4.2526,4.2511 -2.3476,-5e-4 -4.2505,-1.9034 -4.2511,-4.2511 z"
       style="fill:none;fill-rule:evenodd;stroke:#000000;stroke-width:5;stroke-linecap:butt;stroke-linejoin:round;stroke-dasharray:none;fill-opacity:1;stroke-opacity:1;stroke-miterlimit:4"
       id="path205"
       inkscape:connector-curvature="0" />
    <path
       d="m 22.8665,1135.9828 c 6e-4,-2.3476 1.9035,-4.2505 4.2511,-4.2511 2.3483,-3e-4 4.252,1.9029 4.2526,4.2511 3e-4,2.3485 -1.9038,4.2526 -4.2526,4.2526 -2.3482,-6e-4 -4.2511,-1.9043 -4.2511,-4.2526 z"
       style="fill:none;fill-rule:evenodd;stroke:#000000;stroke-width:5;stroke-linecap:butt;stroke-linejoin:round;stroke-dasharray:none;fill-opacity:1;stroke-opacity:1;stroke-miterlimit:4"
       id="path207"
       inkscape:connector-curvature="0" />
  </g>
  <g
     id="Layer1016"
     style="fill:none;fill-opacity:1;stroke:#000000;stroke-opacity:1;stroke-width:5;stroke-miterlimit:4;stroke-dasharray:none">
    <path
       d="m 14.3614,717.8732 c 0,4.7111 4.0295,8.5048 9.0352,8.5048 l 463.8195,2e-4 c 5.0057,0 9.0351,-3.7939 9.0351,-8.505 V 593.149 c 0,-4.7111 -4.0294,-8.5033 -9.0351,-8.5033 H 23.3966 c -5.0057,0 -9.0352,3.7922 -9.0352,8.5033 z"
       style="fill:none;fill-rule:evenodd;stroke:#000000;stroke-width:5;stroke-linecap:butt;stroke-linejoin:round;stroke-dasharray:none;fill-opacity:1;stroke-opacity:1;stroke-miterlimit:4"
       id="path210"
       inkscape:connector-curvature="0" />
    <path
       d="M 42.7082,698.0315 V 612.993 l 425.196,-3e-4 v 85.0388 z"
       style="fill:none;fill-rule:evenodd;stroke:#000000;stroke-width:5;stroke-linecap:butt;stroke-linejoin:round;stroke-dasharray:none;fill-opacity:1;stroke-opacity:1;stroke-miterlimit:4"
       id="path212"
       inkscape:connector-curvature="0" />
    <path
       d="m 479.2431,600.2359 c -3e-4,-2.3482 1.9029,-4.2519 4.2511,-4.2525 2.3485,-3e-4 4.2525,1.9037 4.2525,4.2525 -6e-4,2.3483 -1.9043,4.2512 -4.2525,4.2512 -2.3477,-6e-4 -4.2506,-1.9035 -4.2511,-4.2512 z"
       style="fill:none;fill-rule:evenodd;stroke:#000000;stroke-width:5;stroke-linecap:butt;stroke-linejoin:round;stroke-dasharray:none;fill-opacity:1;stroke-opacity:1;stroke-miterlimit:4"
       id="path214"
       inkscape:connector-curvature="0" />
    <path
       d="m 479.2431,710.7877 c -3e-4,-2.3488 1.9037,-4.2526 4.2525,-4.2526 2.3488,-2e-4 4.2528,1.9038 4.2525,4.2526 -5e-4,2.3482 -1.9043,4.2511 -4.2525,4.2511 -2.3482,3e-4 -4.2517,-1.9029 -4.2525,-4.2511 z"
       style="fill:none;fill-rule:evenodd;stroke:#000000;stroke-width:5;stroke-linecap:butt;stroke-linejoin:round;stroke-dasharray:none;fill-opacity:1;stroke-opacity:1;stroke-miterlimit:4"
       id="path216"
       inkscape:connector-curvature="0" />
    <path
       d="m 22.8665,600.2359 c -3e-4,-2.3482 1.9029,-4.2519 4.2511,-4.2525 2.3488,-3e-4 4.2529,1.9037 4.2526,4.2525 -6e-4,2.3483 -1.9043,4.2512 -4.2526,4.2512 -2.3476,-6e-4 -4.2505,-1.9035 -4.2511,-4.2512 z"
       style="fill:none;fill-rule:evenodd;stroke:#000000;stroke-width:5;stroke-linecap:butt;stroke-linejoin:round;stroke-dasharray:none;fill-opacity:1;stroke-opacity:1;stroke-miterlimit:4"
       id="path218"
       inkscape:connector-curvature="0" />
    <path
       d="m 22.8665,710.7863 c 6e-4,-2.3477 1.9035,-4.2506 4.2511,-4.2512 2.3483,-2e-4 4.252,1.9029 4.2526,4.2512 3e-4,2.3485 -1.9038,4.2525 -4.2526,4.2525 -2.3482,-6e-4 -4.2511,-1.9043 -4.2511,-4.2525 z"
       style="fill:none;fill-rule:evenodd;stroke:#000000;stroke-width:5;stroke-linecap:butt;stroke-linejoin:round;stroke-dasharray:none;fill-opacity:1;stroke-opacity:1;stroke-miterlimit:4"
       id="path220"
       inkscape:connector-curvature="0" />
  </g>
  <g
     id="Layer1017"
     style="fill:none;fill-opacity:1;stroke:#000000;stroke-opacity:1;stroke-width:5;stroke-miterlimit:4;stroke-dasharray:none">
    <path
       d="m 14.3614,150.944 c 0,4.7112 4.0295,8.5048 9.0352,8.5048 l 463.8195,3e-4 c 5.0057,0 9.0351,-3.7939 9.0351,-8.5051 V 26.2199 c 0,-4.7112 -4.0294,-8.5034 -9.0351,-8.5034 H 23.3966 c -5.0057,0 -9.0352,3.7922 -9.0352,8.5034 z"
       style="fill:none;fill-rule:evenodd;stroke:#000000;stroke-width:5;stroke-linecap:butt;stroke-linejoin:round;stroke-dasharray:none;fill-opacity:1;stroke-opacity:1;stroke-miterlimit:4"
       id="path223"
       inkscape:connector-curvature="0" />
    <path
       d="M 42.7082,131.1024 V 46.0638 l 425.196,-2e-4 v 85.0388 z"
       style="fill:none;fill-rule:evenodd;stroke:#000000;stroke-width:5;stroke-linecap:butt;stroke-linejoin:round;stroke-dasharray:none;fill-opacity:1;stroke-opacity:1;stroke-miterlimit:4"
       id="path225"
       inkscape:connector-curvature="0" />
    <path
       d="m 479.2431,33.3068 c -3e-4,-2.3482 1.9029,-4.252 4.2511,-4.2525 2.3485,-3e-4 4.2525,1.9037 4.2525,4.2525 -6e-4,2.3482 -1.9043,4.2511 -4.2525,4.2511 -2.3477,-5e-4 -4.2506,-1.9034 -4.2511,-4.2511 z"
       style="fill:none;fill-rule:evenodd;stroke:#000000;stroke-width:5;stroke-linecap:butt;stroke-linejoin:round;stroke-dasharray:none;fill-opacity:1;stroke-opacity:1;stroke-miterlimit:4"
       id="path227"
       inkscape:connector-curvature="0" />
    <path
       d="m 479.2431,143.8586 c -3e-4,-2.3488 1.9037,-4.2526 4.2525,-4.2526 2.3488,-3e-4 4.2528,1.9038 4.2525,4.2526 -5e-4,2.3482 -1.9043,4.2511 -4.2525,4.2511 -2.3482,3e-4 -4.2517,-1.9029 -4.2525,-4.2511 z"
       style="fill:none;fill-rule:evenodd;stroke:#000000;stroke-width:5;stroke-linecap:butt;stroke-linejoin:round;stroke-dasharray:none;fill-opacity:1;stroke-opacity:1;stroke-miterlimit:4"
       id="path229"
       inkscape:connector-curvature="0" />
    <path
       d="m 22.8665,33.3068 c -3e-4,-2.3482 1.9029,-4.252 4.2511,-4.2525 2.3488,-3e-4 4.2529,1.9037 4.2526,4.2525 -6e-4,2.3482 -1.9043,4.2511 -4.2526,4.2511 -2.3476,-5e-4 -4.2505,-1.9034 -4.2511,-4.2511 z"
       style="fill:none;fill-rule:evenodd;stroke:#000000;stroke-width:5;stroke-linecap:butt;stroke-linejoin:round;stroke-dasharray:none;fill-opacity:1;stroke-opacity:1;stroke-miterlimit:4"
       id="path231"
       inkscape:connector-curvature="0" />
    <path
       d="m 22.8665,143.8571 c 6e-4,-2.3476 1.9035,-4.2505 4.2511,-4.2511 2.3483,-3e-4 4.252,1.9029 4.2526,4.2511 3e-4,2.3485 -1.9038,4.2526 -4.2526,4.2526 -2.3482,-6e-4 -4.2511,-1.9043 -4.2511,-4.2526 z"
       style="fill:none;fill-rule:evenodd;stroke:#000000;stroke-width:5;stroke-linecap:butt;stroke-linejoin:round;stroke-dasharray:none;fill-opacity:1;stroke-opacity:1;stroke-miterlimit:4"
       id="path233"
       inkscape:connector-curvature="0" />
  </g>
  <g
     id="Layer1018"
     style="fill:none;fill-opacity:1;stroke:#000000;stroke-opacity:1;stroke-width:5;stroke-miterlimit:4;stroke-dasharray:none">
    <path
       d="m 1631.9407,505.2759 c 4.7111,0 8.5047,-4.0295 8.5047,-9.0352 l 3e-4,-463.8194 c 0,-5.0057 -3.7939,-9.0352 -8.505,-9.0352 h -124.7242 c -4.7111,0 -8.5033,4.0295 -8.5033,9.0352 v 463.8194 c 0,5.0057 3.7922,9.0352 8.5033,9.0352 z"
       style="fill:none;fill-rule:evenodd;stroke:#000000;stroke-width:5;stroke-linecap:butt;stroke-linejoin:round;stroke-dasharray:none;fill-opacity:1;stroke-opacity:1;stroke-miterlimit:4"
       id="path236"
       inkscape:connector-curvature="0" />
    <path
       d="m 1612.099,476.9291 h -85.0385 l -3e-4,-425.196 h 85.0388 z"
       style="fill:none;fill-rule:evenodd;stroke:#000000;stroke-width:5;stroke-linecap:butt;stroke-linejoin:round;stroke-dasharray:none;fill-opacity:1;stroke-opacity:1;stroke-miterlimit:4"
       id="path238"
       inkscape:connector-curvature="0" />
    <path
       d="m 1514.3034,40.3943 c -2.3482,3e-4 -4.2519,-1.9029 -4.2525,-4.2512 -3e-4,-2.3485 1.9037,-4.2525 4.2525,-4.2525 2.3483,6e-4 4.2512,1.9043 4.2512,4.2525 -6e-4,2.3477 -1.9035,4.2506 -4.2512,4.2512 z"
       style="fill:none;fill-rule:evenodd;stroke:#000000;stroke-width:5;stroke-linecap:butt;stroke-linejoin:round;stroke-dasharray:none;fill-opacity:1;stroke-opacity:1;stroke-miterlimit:4"
       id="path240"
       inkscape:connector-curvature="0" />
    <path
       d="m 1624.8552,40.3943 c -2.3488,3e-4 -4.2526,-1.9038 -4.2526,-4.2526 -2e-4,-2.3488 1.9038,-4.2528 4.2526,-4.2525 2.3482,6e-4 4.2511,1.9043 4.2511,4.2525 3e-4,2.3483 -1.9029,4.2517 -4.2511,4.2526 z"
       style="fill:none;fill-rule:evenodd;stroke:#000000;stroke-width:5;stroke-linecap:butt;stroke-linejoin:round;stroke-dasharray:none;fill-opacity:1;stroke-opacity:1;stroke-miterlimit:4"
       id="path242"
       inkscape:connector-curvature="0" />
    <path
       d="m 1514.3034,496.7708 c -2.3482,3e-4 -4.2519,-1.9029 -4.2525,-4.2511 -3e-4,-2.3488 1.9037,-4.2528 4.2525,-4.2526 2.3483,6e-4 4.2512,1.9044 4.2512,4.2526 -6e-4,2.3476 -1.9035,4.2505 -4.2512,4.2511 z"
       style="fill:none;fill-rule:evenodd;stroke:#000000;stroke-width:5;stroke-linecap:butt;stroke-linejoin:round;stroke-dasharray:none;fill-opacity:1;stroke-opacity:1;stroke-miterlimit:4"
       id="path244"
       inkscape:connector-curvature="0" />
    <path
       d="m 1624.8538,496.7708 c -2.3477,-6e-4 -4.2506,-1.9035 -4.2512,-4.2511 -2e-4,-2.3482 1.9029,-4.252 4.2512,-4.2526 2.3485,-2e-4 4.2525,1.9038 4.2525,4.2526 -6e-4,2.3482 -1.9043,4.2511 -4.2525,4.2511 z"
       style="fill:none;fill-rule:evenodd;stroke:#000000;stroke-width:5;stroke-linecap:butt;stroke-linejoin:round;stroke-dasharray:none;fill-opacity:1;stroke-opacity:1;stroke-miterlimit:4"
       id="path246"
       inkscape:connector-curvature="0" />
  </g>
  <g
     id="Layer1019"
     style="fill:none;fill-opacity:1;stroke:#000000;stroke-opacity:1;stroke-width:5;stroke-miterlimit:4;stroke-dasharray:none">
    <path
       d="m 1460.0307,593.1505 c 0,-4.7112 -4.0297,-8.5048 -9.0351,-8.5048 h -396.3181 v 28.3461 h 377.0071 v 85.0386 h -377.0071 v 28.3476 h 396.3181 c 5.0057,0 9.0351,-3.7922 9.0351,-8.5034 z"
       style="fill:none;fill-rule:evenodd;stroke:#000000;stroke-width:5;stroke-linecap:butt;stroke-linejoin:round;stroke-dasharray:none;fill-opacity:1;stroke-opacity:1;stroke-miterlimit:4"
       id="path249"
       inkscape:connector-curvature="0" />
    <path
       d="m 1017.8266,698.0304 h -11.338 V 686.694 H 978.141 v 31.1806 c 0,4.7112 4.0294,8.5034 9.0351,8.5034 h 30.6505 z"
       style="fill:none;fill-rule:evenodd;stroke:#000000;stroke-width:5;stroke-linecap:butt;stroke-linejoin:round;stroke-dasharray:none;fill-opacity:1;stroke-opacity:1;stroke-miterlimit:4"
       id="path251"
       inkscape:connector-curvature="0" />
    <path
       d="m 1017.8266,584.6457 h -30.6505 c -5.0057,0 -9.0351,3.7936 -9.0351,8.5048 v 31.1808 h 28.3476 v -11.3395 h 11.338 z"
       style="fill:none;fill-rule:evenodd;stroke:#000000;stroke-width:5;stroke-linecap:butt;stroke-linejoin:round;stroke-dasharray:none;fill-opacity:1;stroke-opacity:1;stroke-miterlimit:4"
       id="path253"
       inkscape:connector-curvature="0" />
    <path
       d="m 1443.0226,600.2357 c -3e-4,-2.3483 1.9029,-4.252 4.2511,-4.2526 2.3485,-3e-4 4.2525,1.9038 4.2525,4.2526 -5e-4,2.3482 -1.9043,4.2511 -4.2525,4.2511 -2.3477,-6e-4 -4.2506,-1.9035 -4.2511,-4.2511 z"
       style="fill:none;fill-rule:evenodd;stroke:#000000;stroke-width:5;stroke-linecap:butt;stroke-linejoin:round;stroke-dasharray:none;fill-opacity:1;stroke-opacity:1;stroke-miterlimit:4"
       id="path255"
       inkscape:connector-curvature="0" />
    <path
       d="m 1443.0226,710.7874 c -3e-4,-2.3488 1.9037,-4.2525 4.2525,-4.2525 2.3488,-3e-4 4.2528,1.9037 4.2526,4.2525 -6e-4,2.3482 -1.9044,4.2511 -4.2526,4.2511 -2.3482,3e-4 -4.2517,-1.9029 -4.2525,-4.2511 z"
       style="fill:none;fill-rule:evenodd;stroke:#000000;stroke-width:5;stroke-linecap:butt;stroke-linejoin:round;stroke-dasharray:none;fill-opacity:1;stroke-opacity:1;stroke-miterlimit:4"
       id="path257"
       inkscape:connector-curvature="0" />
    <path
       d="m 986.646,600.2357 c -2e-4,-2.3483 1.9029,-4.252 4.2512,-4.2526 2.3488,-3e-4 4.2528,1.9038 4.2525,4.2526 -6e-4,2.3482 -1.9043,4.2511 -4.2525,4.2511 -2.3477,-6e-4 -4.2506,-1.9035 -4.2512,-4.2511 z"
       style="fill:none;fill-rule:evenodd;stroke:#000000;stroke-width:5;stroke-linecap:butt;stroke-linejoin:round;stroke-dasharray:none;fill-opacity:1;stroke-opacity:1;stroke-miterlimit:4"
       id="path259"
       inkscape:connector-curvature="0" />
    <path
       d="m 986.646,710.786 c 6e-4,-2.3477 1.9035,-4.2506 4.2512,-4.2511 2.3482,-3e-4 4.2519,1.9029 4.2525,4.2511 3e-4,2.3485 -1.9037,4.2525 -4.2525,4.2525 -2.3483,-5e-4 -4.2512,-1.9043 -4.2512,-4.2525 z"
       style="fill:none;fill-rule:evenodd;stroke:#000000;stroke-width:5;stroke-linecap:butt;stroke-linejoin:round;stroke-dasharray:none;fill-opacity:1;stroke-opacity:1;stroke-miterlimit:4"
       id="path261"
       inkscape:connector-curvature="0" />
  </g>
  <g
     id="Layer1020"
     style="fill:none;fill-opacity:1;stroke:#000000;stroke-opacity:1;stroke-width:5;stroke-miterlimit:4;stroke-dasharray:none">
    <path
       d="m 1460.0307,734.8827 c 0,-4.7111 -4.0297,-8.5047 -9.0351,-8.5047 h -396.3181 v 28.3461 h 377.0071 v 85.0385 h -377.0071 v 28.3476 h 396.3181 c 5.0057,0 9.0351,-3.7922 9.0351,-8.5033 z"
       style="fill:none;fill-rule:evenodd;stroke:#000000;stroke-width:5;stroke-linecap:butt;stroke-linejoin:round;stroke-dasharray:none;fill-opacity:1;stroke-opacity:1;stroke-miterlimit:4"
       id="path264"
       inkscape:connector-curvature="0" />
    <path
       d="m 1017.8266,839.7626 h -11.338 V 828.4263 H 978.141 v 31.1806 c 0,4.7111 4.0294,8.5033 9.0351,8.5033 h 30.6505 z"
       style="fill:none;fill-rule:evenodd;stroke:#000000;stroke-width:5;stroke-linecap:butt;stroke-linejoin:round;stroke-dasharray:none;fill-opacity:1;stroke-opacity:1;stroke-miterlimit:4"
       id="path266"
       inkscape:connector-curvature="0" />
    <path
       d="m 1017.8266,726.378 h -30.6505 c -5.0057,0 -9.0351,3.7936 -9.0351,8.5047 v 31.1809 h 28.3476 v -11.3395 h 11.338 z"
       style="fill:none;fill-rule:evenodd;stroke:#000000;stroke-width:5;stroke-linecap:butt;stroke-linejoin:round;stroke-dasharray:none;fill-opacity:1;stroke-opacity:1;stroke-miterlimit:4"
       id="path268"
       inkscape:connector-curvature="0" />
    <path
       d="m 1443.0226,741.9679 c -3e-4,-2.3482 1.9029,-4.2519 4.2511,-4.2525 2.3485,-3e-4 4.2525,1.9037 4.2525,4.2525 -5e-4,2.3483 -1.9043,4.2512 -4.2525,4.2512 -2.3477,-6e-4 -4.2506,-1.9035 -4.2511,-4.2512 z"
       style="fill:none;fill-rule:evenodd;stroke:#000000;stroke-width:5;stroke-linecap:butt;stroke-linejoin:round;stroke-dasharray:none;fill-opacity:1;stroke-opacity:1;stroke-miterlimit:4"
       id="path270"
       inkscape:connector-curvature="0" />
    <path
       d="m 1443.0226,852.5197 c -3e-4,-2.3488 1.9037,-4.2526 4.2525,-4.2526 2.3488,-2e-4 4.2528,1.9038 4.2526,4.2526 -6e-4,2.3482 -1.9044,4.2511 -4.2526,4.2511 -2.3482,3e-4 -4.2517,-1.9029 -4.2525,-4.2511 z"
       style="fill:none;fill-rule:evenodd;stroke:#000000;stroke-width:5;stroke-linecap:butt;stroke-linejoin:round;stroke-dasharray:none;fill-opacity:1;stroke-opacity:1;stroke-miterlimit:4"
       id="path272"
       inkscape:connector-curvature="0" />
    <path
       d="m 986.646,741.9679 c -2e-4,-2.3482 1.9029,-4.2519 4.2512,-4.2525 2.3488,-3e-4 4.2528,1.9037 4.2525,4.2525 -6e-4,2.3483 -1.9043,4.2512 -4.2525,4.2512 -2.3477,-6e-4 -4.2506,-1.9035 -4.2512,-4.2512 z"
       style="fill:none;fill-rule:evenodd;stroke:#000000;stroke-width:5;stroke-linecap:butt;stroke-linejoin:round;stroke-dasharray:none;fill-opacity:1;stroke-opacity:1;stroke-miterlimit:4"
       id="path274"
       inkscape:connector-curvature="0" />
    <path
       d="m 986.646,852.5183 c 6e-4,-2.3477 1.9035,-4.2506 4.2512,-4.2512 2.3482,-2e-4 4.2519,1.9029 4.2525,4.2512 3e-4,2.3485 -1.9037,4.2525 -4.2525,4.2525 -2.3483,-6e-4 -4.2512,-1.9043 -4.2512,-4.2525 z"
       style="fill:none;fill-rule:evenodd;stroke:#000000;stroke-width:5;stroke-linecap:butt;stroke-linejoin:round;stroke-dasharray:none;fill-opacity:1;stroke-opacity:1;stroke-miterlimit:4"
       id="path276"
       inkscape:connector-curvature="0" />
  </g>
  <g
     id="Layer1021"
     style="fill:none;fill-opacity:1;stroke:#000000;stroke-opacity:1;stroke-width:5;stroke-miterlimit:4;stroke-dasharray:none">
    <path
       d="m 1460.0307,876.615 c 0,-4.7112 -4.0297,-8.5048 -9.0351,-8.5048 h -396.3181 v 28.3462 h 377.0071 v 85.0385 h -377.0071 v 28.3476 h 396.3181 c 5.0057,0 9.0351,-3.7922 9.0351,-8.5034 z"
       style="fill:none;fill-rule:evenodd;stroke:#000000;stroke-width:5;stroke-linecap:butt;stroke-linejoin:round;stroke-dasharray:none;fill-opacity:1;stroke-opacity:1;stroke-miterlimit:4"
       id="path279"
       inkscape:connector-curvature="0" />
    <path
       d="m 1017.8266,981.4949 h -11.338 V 970.1586 H 978.141 v 31.1805 c 0,4.7112 4.0294,8.5034 9.0351,8.5034 h 30.6505 z"
       style="fill:none;fill-rule:evenodd;stroke:#000000;stroke-width:5;stroke-linecap:butt;stroke-linejoin:round;stroke-dasharray:none;fill-opacity:1;stroke-opacity:1;stroke-miterlimit:4"
       id="path281"
       inkscape:connector-curvature="0" />
    <path
       d="m 1017.8266,868.1102 h -30.6505 c -5.0057,0 -9.0351,3.7936 -9.0351,8.5048 v 31.1808 h 28.3476 v -11.3394 h 11.338 z"
       style="fill:none;fill-rule:evenodd;stroke:#000000;stroke-width:5;stroke-linecap:butt;stroke-linejoin:round;stroke-dasharray:none;fill-opacity:1;stroke-opacity:1;stroke-miterlimit:4"
       id="path283"
       inkscape:connector-curvature="0" />
    <path
       d="m 1443.0226,883.7002 c -3e-4,-2.3482 1.9029,-4.2519 4.2511,-4.2525 2.3485,-3e-4 4.2525,1.9037 4.2525,4.2525 -5e-4,2.3482 -1.9043,4.2511 -4.2525,4.2511 -2.3477,-5e-4 -4.2506,-1.9034 -4.2511,-4.2511 z"
       style="fill:none;fill-rule:evenodd;stroke:#000000;stroke-width:5;stroke-linecap:butt;stroke-linejoin:round;stroke-dasharray:none;fill-opacity:1;stroke-opacity:1;stroke-miterlimit:4"
       id="path285"
       inkscape:connector-curvature="0" />
    <path
       d="m 1443.0226,994.252 c -3e-4,-2.3488 1.9037,-4.2526 4.2525,-4.2526 2.3488,-3e-4 4.2528,1.9038 4.2526,4.2526 -6e-4,2.3482 -1.9044,4.2511 -4.2526,4.2511 -2.3482,3e-4 -4.2517,-1.9029 -4.2525,-4.2511 z"
       style="fill:none;fill-rule:evenodd;stroke:#000000;stroke-width:5;stroke-linecap:butt;stroke-linejoin:round;stroke-dasharray:none;fill-opacity:1;stroke-opacity:1;stroke-miterlimit:4"
       id="path287"
       inkscape:connector-curvature="0" />
    <path
       d="m 986.646,883.7002 c -2e-4,-2.3482 1.9029,-4.2519 4.2512,-4.2525 2.3488,-3e-4 4.2528,1.9037 4.2525,4.2525 -6e-4,2.3482 -1.9043,4.2511 -4.2525,4.2511 -2.3477,-5e-4 -4.2506,-1.9034 -4.2512,-4.2511 z"
       style="fill:none;fill-rule:evenodd;stroke:#000000;stroke-width:5;stroke-linecap:butt;stroke-linejoin:round;stroke-dasharray:none;fill-opacity:1;stroke-opacity:1;stroke-miterlimit:4"
       id="path289"
       inkscape:connector-curvature="0" />
    <path
       d="m 986.646,994.2506 c 6e-4,-2.3477 1.9035,-4.2506 4.2512,-4.2512 2.3482,-3e-4 4.2519,1.9029 4.2525,4.2512 3e-4,2.3485 -1.9037,4.2525 -4.2525,4.2525 -2.3483,-6e-4 -4.2512,-1.9043 -4.2512,-4.2525 z"
       style="fill:none;fill-rule:evenodd;stroke:#000000;stroke-width:5;stroke-linecap:butt;stroke-linejoin:round;stroke-dasharray:none;fill-opacity:1;stroke-opacity:1;stroke-miterlimit:4"
       id="path291"
       inkscape:connector-curvature="0" />
  </g>
  <g
     id="Layer1022"
     style="fill:none;fill-opacity:1;stroke:#000000;stroke-opacity:1;stroke-width:5;stroke-miterlimit:4;stroke-dasharray:none">
    <path
       d="m 1460.0307,1018.3473 c 0,-4.7112 -4.0297,-8.5048 -9.0351,-8.5048 h -396.3181 v 28.3462 h 377.0071 v 85.0385 h -377.0071 v 28.3476 h 396.3181 c 5.0057,0 9.0351,-3.7922 9.0351,-8.5034 z"
       style="fill:none;fill-rule:evenodd;stroke:#000000;stroke-width:5;stroke-linecap:butt;stroke-linejoin:round;stroke-dasharray:none;fill-opacity:1;stroke-opacity:1;stroke-miterlimit:4"
       id="path294"
       inkscape:connector-curvature="0" />
    <path
       d="m 1017.8266,1123.2272 h -11.338 v -11.3363 H 978.141 v 31.1805 c 0,4.7112 4.0294,8.5034 9.0351,8.5034 h 30.6505 z"
       style="fill:none;fill-rule:evenodd;stroke:#000000;stroke-width:5;stroke-linecap:butt;stroke-linejoin:round;stroke-dasharray:none;fill-opacity:1;stroke-opacity:1;stroke-miterlimit:4"
       id="path296"
       inkscape:connector-curvature="0" />
    <path
       d="m 1017.8266,1009.8425 h -30.6505 c -5.0057,0 -9.0351,3.7936 -9.0351,8.5048 v 31.1808 h 28.3476 v -11.3394 h 11.338 z"
       style="fill:none;fill-rule:evenodd;stroke:#000000;stroke-width:5;stroke-linecap:butt;stroke-linejoin:round;stroke-dasharray:none;fill-opacity:1;stroke-opacity:1;stroke-miterlimit:4"
       id="path298"
       inkscape:connector-curvature="0" />
    <path
       d="m 1443.0226,1025.4325 c -3e-4,-2.3482 1.9029,-4.252 4.2511,-4.2525 2.3485,-3e-4 4.2525,1.9037 4.2525,4.2525 -5e-4,2.3482 -1.9043,4.2511 -4.2525,4.2511 -2.3477,-5e-4 -4.2506,-1.9034 -4.2511,-4.2511 z"
       style="fill:none;fill-rule:evenodd;stroke:#000000;stroke-width:5;stroke-linecap:butt;stroke-linejoin:round;stroke-dasharray:none;fill-opacity:1;stroke-opacity:1;stroke-miterlimit:4"
       id="path300"
       inkscape:connector-curvature="0" />
    <path
       d="m 1443.0226,1135.9843 c -3e-4,-2.3488 1.9037,-4.2526 4.2525,-4.2526 2.3488,-3e-4 4.2528,1.9038 4.2526,4.2526 -6e-4,2.3482 -1.9044,4.2511 -4.2526,4.2511 -2.3482,3e-4 -4.2517,-1.9029 -4.2525,-4.2511 z"
       style="fill:none;fill-rule:evenodd;stroke:#000000;stroke-width:5;stroke-linecap:butt;stroke-linejoin:round;stroke-dasharray:none;fill-opacity:1;stroke-opacity:1;stroke-miterlimit:4"
       id="path302"
       inkscape:connector-curvature="0" />
    <path
       d="m 986.646,1025.4325 c -2e-4,-2.3482 1.9029,-4.252 4.2512,-4.2525 2.3488,-3e-4 4.2528,1.9037 4.2525,4.2525 -6e-4,2.3482 -1.9043,4.2511 -4.2525,4.2511 -2.3477,-5e-4 -4.2506,-1.9034 -4.2512,-4.2511 z"
       style="fill:none;fill-rule:evenodd;stroke:#000000;stroke-width:5;stroke-linecap:butt;stroke-linejoin:round;stroke-dasharray:none;fill-opacity:1;stroke-opacity:1;stroke-miterlimit:4"
       id="path304"
       inkscape:connector-curvature="0" />
    <path
       d="m 986.646,1135.9828 c 6e-4,-2.3476 1.9035,-4.2505 4.2512,-4.2511 2.3482,-3e-4 4.2519,1.9029 4.2525,4.2511 3e-4,2.3485 -1.9037,4.2526 -4.2525,4.2526 -2.3483,-6e-4 -4.2512,-1.9043 -4.2512,-4.2526 z"
       style="fill:none;fill-rule:evenodd;stroke:#000000;stroke-width:5;stroke-linecap:butt;stroke-linejoin:round;stroke-dasharray:none;fill-opacity:1;stroke-opacity:1;stroke-miterlimit:4"
       id="path306"
       inkscape:connector-curvature="0" />
  </g>
  <g
     id="Layer1023"
     style="fill:none;fill-opacity:1;stroke:#000000;stroke-opacity:1;stroke-width:5;stroke-miterlimit:4;stroke-dasharray:none">
    <path
       d="m 14.3614,292.6763 c 0,4.7112 4.0295,8.5048 9.0352,8.5048 l 463.8195,3e-4 c 5.0057,0 9.0351,-3.7939 9.0351,-8.5051 V 167.9522 c 0,-4.7112 -4.0294,-8.5034 -9.0351,-8.5034 H 23.3966 c -5.0057,0 -9.0352,3.7922 -9.0352,8.5034 z"
       style="fill:none;fill-rule:evenodd;stroke:#000000;stroke-width:5;stroke-linecap:butt;stroke-linejoin:round;stroke-dasharray:none;fill-opacity:1;stroke-opacity:1;stroke-miterlimit:4"
       id="path309"
       inkscape:connector-curvature="0" />
    <path
       d="m 42.7082,272.8346 v -85.0385 l 425.196,-3e-4 v 85.0388 z"
       style="fill:none;fill-rule:evenodd;stroke:#000000;stroke-width:5;stroke-linecap:butt;stroke-linejoin:round;stroke-dasharray:none;fill-opacity:1;stroke-opacity:1;stroke-miterlimit:4"
       id="path311"
       inkscape:connector-curvature="0" />
    <path
       d="m 479.2431,175.0391 c -3e-4,-2.3482 1.9029,-4.252 4.2511,-4.2525 2.3485,-3e-4 4.2525,1.9037 4.2525,4.2525 -6e-4,2.3482 -1.9043,4.2511 -4.2525,4.2511 -2.3477,-6e-4 -4.2506,-1.9035 -4.2511,-4.2511 z"
       style="fill:none;fill-rule:evenodd;stroke:#000000;stroke-width:5;stroke-linecap:butt;stroke-linejoin:round;stroke-dasharray:none;fill-opacity:1;stroke-opacity:1;stroke-miterlimit:4"
       id="path313"
       inkscape:connector-curvature="0" />
    <path
       d="m 479.2431,285.5908 c -3e-4,-2.3488 1.9037,-4.2525 4.2525,-4.2525 2.3488,-3e-4 4.2528,1.9037 4.2525,4.2525 -5e-4,2.3483 -1.9043,4.2512 -4.2525,4.2512 -2.3482,2e-4 -4.2517,-1.9029 -4.2525,-4.2512 z"
       style="fill:none;fill-rule:evenodd;stroke:#000000;stroke-width:5;stroke-linecap:butt;stroke-linejoin:round;stroke-dasharray:none;fill-opacity:1;stroke-opacity:1;stroke-miterlimit:4"
       id="path315"
       inkscape:connector-curvature="0" />
    <path
       d="m 22.8665,175.0391 c -3e-4,-2.3482 1.9029,-4.252 4.2511,-4.2525 2.3488,-3e-4 4.2529,1.9037 4.2526,4.2525 -6e-4,2.3482 -1.9043,4.2511 -4.2526,4.2511 -2.3476,-6e-4 -4.2505,-1.9035 -4.2511,-4.2511 z"
       style="fill:none;fill-rule:evenodd;stroke:#000000;stroke-width:5;stroke-linecap:butt;stroke-linejoin:round;stroke-dasharray:none;fill-opacity:1;stroke-opacity:1;stroke-miterlimit:4"
       id="path317"
       inkscape:connector-curvature="0" />
    <path
       d="m 22.8665,285.5894 c 6e-4,-2.3476 1.9035,-4.2505 4.2511,-4.2511 2.3483,-3e-4 4.252,1.9029 4.2526,4.2511 3e-4,2.3485 -1.9038,4.2526 -4.2526,4.2526 -2.3482,-6e-4 -4.2511,-1.9044 -4.2511,-4.2526 z"
       style="fill:none;fill-rule:evenodd;stroke:#000000;stroke-width:5;stroke-linecap:butt;stroke-linejoin:round;stroke-dasharray:none;fill-opacity:1;stroke-opacity:1;stroke-miterlimit:4"
       id="path319"
       inkscape:connector-curvature="0" />
  </g>
  <g
     id="Layer1024"
     style="fill:none;fill-opacity:1;stroke:#000000;stroke-opacity:1;stroke-width:5;stroke-miterlimit:4;stroke-dasharray:none">
    <path
       d="m 14.3614,434.4083 c 0,4.7112 4.0295,8.5048 9.0352,8.5048 l 463.8195,3e-4 c 5.0057,0 9.0351,-3.7939 9.0351,-8.5051 V 309.6842 c 0,-4.7112 -4.0294,-8.5034 -9.0351,-8.5034 H 23.3966 c -5.0057,0 -9.0352,3.7922 -9.0352,8.5034 z"
       style="fill:none;fill-rule:evenodd;stroke:#000000;stroke-width:5;stroke-linecap:butt;stroke-linejoin:round;stroke-dasharray:none;fill-opacity:1;stroke-opacity:1;stroke-miterlimit:4"
       id="path322"
       inkscape:connector-curvature="0" />
    <path
       d="m 42.7082,414.5666 v -85.0385 l 425.196,-3e-4 v 85.0388 z"
       style="fill:none;fill-rule:evenodd;stroke:#000000;stroke-width:5;stroke-linecap:butt;stroke-linejoin:round;stroke-dasharray:none;fill-opacity:1;stroke-opacity:1;stroke-miterlimit:4"
       id="path324"
       inkscape:connector-curvature="0" />
    <path
       d="m 479.2431,316.7711 c -3e-4,-2.3482 1.9029,-4.252 4.2511,-4.2525 2.3485,-3e-4 4.2525,1.9037 4.2525,4.2525 -6e-4,2.3482 -1.9043,4.2511 -4.2525,4.2511 -2.3477,-6e-4 -4.2506,-1.9035 -4.2511,-4.2511 z"
       style="fill:none;fill-rule:evenodd;stroke:#000000;stroke-width:5;stroke-linecap:butt;stroke-linejoin:round;stroke-dasharray:none;fill-opacity:1;stroke-opacity:1;stroke-miterlimit:4"
       id="path326"
       inkscape:connector-curvature="0" />
    <path
       d="m 479.2431,427.3228 c -3e-4,-2.3488 1.9037,-4.2525 4.2525,-4.2525 2.3488,-3e-4 4.2528,1.9037 4.2525,4.2525 -5e-4,2.3483 -1.9043,4.2512 -4.2525,4.2512 -2.3482,2e-4 -4.2517,-1.9029 -4.2525,-4.2512 z"
       style="fill:none;fill-rule:evenodd;stroke:#000000;stroke-width:5;stroke-linecap:butt;stroke-linejoin:round;stroke-dasharray:none;fill-opacity:1;stroke-opacity:1;stroke-miterlimit:4"
       id="path328"
       inkscape:connector-curvature="0" />
    <path
       d="m 22.8665,316.7711 c -3e-4,-2.3482 1.9029,-4.252 4.2511,-4.2525 2.3488,-3e-4 4.2529,1.9037 4.2526,4.2525 -6e-4,2.3482 -1.9043,4.2511 -4.2526,4.2511 -2.3476,-6e-4 -4.2505,-1.9035 -4.2511,-4.2511 z"
       style="fill:none;fill-rule:evenodd;stroke:#000000;stroke-width:5;stroke-linecap:butt;stroke-linejoin:round;stroke-dasharray:none;fill-opacity:1;stroke-opacity:1;stroke-miterlimit:4"
       id="path330"
       inkscape:connector-curvature="0" />
    <path
       d="m 22.8665,427.3214 c 6e-4,-2.3476 1.9035,-4.2505 4.2511,-4.2511 2.3483,-3e-4 4.252,1.9029 4.2526,4.2511 3e-4,2.3485 -1.9038,4.2526 -4.2526,4.2526 -2.3482,-6e-4 -4.2511,-1.9044 -4.2511,-4.2526 z"
       style="fill:none;fill-rule:evenodd;stroke:#000000;stroke-width:5;stroke-linecap:butt;stroke-linejoin:round;stroke-dasharray:none;fill-opacity:1;stroke-opacity:1;stroke-miterlimit:4"
       id="path332"
       inkscape:connector-curvature="0" />
  </g>
  <g
     id="Layer1025"
     style="fill:none;fill-opacity:1;stroke:#000000;stroke-opacity:1;stroke-width:5;stroke-miterlimit:4;stroke-dasharray:none">
    <path
       d="m 14.3614,576.1406 c 0,4.7112 4.0295,8.5048 9.0352,8.5048 l 463.8195,3e-4 c 5.0057,0 9.0351,-3.7939 9.0351,-8.5051 V 451.4165 c 0,-4.7112 -4.0294,-8.5034 -9.0351,-8.5034 H 23.3966 c -5.0057,0 -9.0352,3.7922 -9.0352,8.5034 z"
       style="fill:none;fill-rule:evenodd;stroke:#000000;stroke-width:5;stroke-linecap:butt;stroke-linejoin:round;stroke-dasharray:none;fill-opacity:1;stroke-opacity:1;stroke-miterlimit:4"
       id="path335"
       inkscape:connector-curvature="0" />
    <path
       d="m 42.7082,556.2989 v -85.0385 l 425.196,-3e-4 v 85.0388 z"
       style="fill:none;fill-rule:evenodd;stroke:#000000;stroke-width:5;stroke-linecap:butt;stroke-linejoin:round;stroke-dasharray:none;fill-opacity:1;stroke-opacity:1;stroke-miterlimit:4"
       id="path337"
       inkscape:connector-curvature="0" />
    <path
       d="m 479.2431,458.5034 c -3e-4,-2.3483 1.9029,-4.252 4.2511,-4.2526 2.3485,-2e-4 4.2525,1.9038 4.2525,4.2526 -6e-4,2.3482 -1.9043,4.2511 -4.2525,4.2511 -2.3477,-6e-4 -4.2506,-1.9035 -4.2511,-4.2511 z"
       style="fill:none;fill-rule:evenodd;stroke:#000000;stroke-width:5;stroke-linecap:butt;stroke-linejoin:round;stroke-dasharray:none;fill-opacity:1;stroke-opacity:1;stroke-miterlimit:4"
       id="path339"
       inkscape:connector-curvature="0" />
    <path
       d="m 479.2431,569.0551 c -3e-4,-2.3488 1.9037,-4.2525 4.2525,-4.2525 2.3488,-3e-4 4.2528,1.9037 4.2525,4.2525 -5e-4,2.3482 -1.9043,4.2511 -4.2525,4.2511 -2.3482,3e-4 -4.2517,-1.9029 -4.2525,-4.2511 z"
       style="fill:none;fill-rule:evenodd;stroke:#000000;stroke-width:5;stroke-linecap:butt;stroke-linejoin:round;stroke-dasharray:none;fill-opacity:1;stroke-opacity:1;stroke-miterlimit:4"
       id="path341"
       inkscape:connector-curvature="0" />
    <path
       d="m 22.8665,458.5034 c -3e-4,-2.3483 1.9029,-4.252 4.2511,-4.2526 2.3488,-2e-4 4.2529,1.9038 4.2526,4.2526 -6e-4,2.3482 -1.9043,4.2511 -4.2526,4.2511 -2.3476,-6e-4 -4.2505,-1.9035 -4.2511,-4.2511 z"
       style="fill:none;fill-rule:evenodd;stroke:#000000;stroke-width:5;stroke-linecap:butt;stroke-linejoin:round;stroke-dasharray:none;fill-opacity:1;stroke-opacity:1;stroke-miterlimit:4"
       id="path343"
       inkscape:connector-curvature="0" />
    <path
       d="m 22.8665,569.0537 c 6e-4,-2.3477 1.9035,-4.2506 4.2511,-4.2511 2.3483,-3e-4 4.252,1.9029 4.2526,4.2511 3e-4,2.3485 -1.9038,4.2525 -4.2526,4.2525 -2.3482,-5e-4 -4.2511,-1.9043 -4.2511,-4.2525 z"
       style="fill:none;fill-rule:evenodd;stroke:#000000;stroke-width:5;stroke-linecap:butt;stroke-linejoin:round;stroke-dasharray:none;fill-opacity:1;stroke-opacity:1;stroke-miterlimit:4"
       id="path345"
       inkscape:connector-curvature="0" />
  </g>
  <g
     id="Layer1026"
     style="fill:none;fill-opacity:1;stroke:#000000;stroke-opacity:1;stroke-width:5;stroke-miterlimit:4;stroke-dasharray:none">
    <path
       d="m 14.3614,150.944 c 0,4.7112 4.0295,8.5048 9.0352,8.5048 l 463.8195,3e-4 c 5.0057,0 9.0351,-3.7939 9.0351,-8.5051 V 26.2199 c 0,-4.7112 -4.0294,-8.5034 -9.0351,-8.5034 H 23.3966 c -5.0057,0 -9.0352,3.7922 -9.0352,8.5034 z"
       style="fill:none;fill-rule:evenodd;stroke:#000000;stroke-width:5;stroke-linecap:butt;stroke-linejoin:round;stroke-dasharray:none;fill-opacity:1;stroke-opacity:1;stroke-miterlimit:4"
       id="path348"
       inkscape:connector-curvature="0" />
    <path
       d="M 42.7082,131.1024 V 46.0638 l 425.196,-2e-4 v 85.0388 z"
       style="fill:none;fill-rule:evenodd;stroke:#000000;stroke-width:5;stroke-linecap:butt;stroke-linejoin:round;stroke-dasharray:none;fill-opacity:1;stroke-opacity:1;stroke-miterlimit:4"
       id="path350"
       inkscape:connector-curvature="0" />
    <path
       d="m 479.2431,33.3068 c -3e-4,-2.3482 1.9029,-4.252 4.2511,-4.2525 2.3485,-3e-4 4.2525,1.9037 4.2525,4.2525 -6e-4,2.3482 -1.9043,4.2511 -4.2525,4.2511 -2.3477,-5e-4 -4.2506,-1.9034 -4.2511,-4.2511 z"
       style="fill:none;fill-rule:evenodd;stroke:#000000;stroke-width:5;stroke-linecap:butt;stroke-linejoin:round;stroke-dasharray:none;fill-opacity:1;stroke-opacity:1;stroke-miterlimit:4"
       id="path352"
       inkscape:connector-curvature="0" />
    <path
       d="m 479.2431,143.8586 c -3e-4,-2.3488 1.9037,-4.2526 4.2525,-4.2526 2.3488,-3e-4 4.2528,1.9038 4.2525,4.2526 -5e-4,2.3482 -1.9043,4.2511 -4.2525,4.2511 -2.3482,3e-4 -4.2517,-1.9029 -4.2525,-4.2511 z"
       style="fill:none;fill-rule:evenodd;stroke:#000000;stroke-width:5;stroke-linecap:butt;stroke-linejoin:round;stroke-dasharray:none;fill-opacity:1;stroke-opacity:1;stroke-miterlimit:4"
       id="path354"
       inkscape:connector-curvature="0" />
    <path
       d="m 22.8665,33.3068 c -3e-4,-2.3482 1.9029,-4.252 4.2511,-4.2525 2.3488,-3e-4 4.2529,1.9037 4.2526,4.2525 -6e-4,2.3482 -1.9043,4.2511 -4.2526,4.2511 -2.3476,-5e-4 -4.2505,-1.9034 -4.2511,-4.2511 z"
       style="fill:none;fill-rule:evenodd;stroke:#000000;stroke-width:5;stroke-linecap:butt;stroke-linejoin:round;stroke-dasharray:none;fill-opacity:1;stroke-opacity:1;stroke-miterlimit:4"
       id="path356"
       inkscape:connector-curvature="0" />
    <path
       d="m 22.8665,143.8571 c 6e-4,-2.3476 1.9035,-4.2505 4.2511,-4.2511 2.3483,-3e-4 4.252,1.9029 4.2526,4.2511 3e-4,2.3485 -1.9038,4.2526 -4.2526,4.2526 -2.3482,-6e-4 -4.2511,-1.9043 -4.2511,-4.2526 z"
       style="fill:none;fill-rule:evenodd;stroke:#000000;stroke-width:5;stroke-linecap:butt;stroke-linejoin:round;stroke-dasharray:none;fill-opacity:1;stroke-opacity:1;stroke-miterlimit:4"
       id="path358"
       inkscape:connector-curvature="0" />
  </g>
  <g
     id="Layer1027"
     style="fill:none;fill-opacity:1;stroke:#000000;stroke-opacity:1;stroke-width:5;stroke-miterlimit:4;stroke-dasharray:none">
    <path
       d="m 1622.901,1043.2704 c 4.7112,0 8.5048,-4.0295 8.5048,-9.0352 l 2e-4,-463.8195 c 0,-5.0057 -3.7938,-9.0351 -8.505,-9.0351 h -124.7241 c -4.7112,0 -8.5034,4.0294 -8.5034,9.0351 v 463.8195 c 0,5.0057 3.7922,9.0352 8.5034,9.0352 z"
       style="fill:none;fill-rule:evenodd;stroke:#000000;stroke-width:5;stroke-linecap:butt;stroke-linejoin:round;stroke-dasharray:none;fill-opacity:1;stroke-opacity:1;stroke-miterlimit:4"
       id="path361"
       inkscape:connector-curvature="0" />
    <path
       d="m 1603.0593,1014.9236 h -85.0385 l -3e-4,-425.196 h 85.0388 z"
       style="fill:none;fill-rule:evenodd;stroke:#000000;stroke-width:5;stroke-linecap:butt;stroke-linejoin:round;stroke-dasharray:none;fill-opacity:1;stroke-opacity:1;stroke-miterlimit:4"
       id="path363"
       inkscape:connector-curvature="0" />
    <path
       d="m 1505.2637,578.3888 c -2.3482,2e-4 -4.2519,-1.9029 -4.2525,-4.2512 -3e-4,-2.3485 1.9038,-4.2525 4.2525,-4.2525 2.3483,6e-4 4.2512,1.9043 4.2512,4.2525 -6e-4,2.3477 -1.9035,4.2506 -4.2512,4.2512 z"
       style="fill:none;fill-rule:evenodd;stroke:#000000;stroke-width:5;stroke-linecap:butt;stroke-linejoin:round;stroke-dasharray:none;fill-opacity:1;stroke-opacity:1;stroke-miterlimit:4"
       id="path365"
       inkscape:connector-curvature="0" />
    <path
       d="m 1615.8155,578.3888 c -2.3488,2e-4 -4.2525,-1.9038 -4.2525,-4.2526 -3e-4,-2.3488 1.9037,-4.2528 4.2525,-4.2525 2.3482,6e-4 4.2511,1.9043 4.2511,4.2525 3e-4,2.3482 -1.9029,4.2517 -4.2511,4.2526 z"
       style="fill:none;fill-rule:evenodd;stroke:#000000;stroke-width:5;stroke-linecap:butt;stroke-linejoin:round;stroke-dasharray:none;fill-opacity:1;stroke-opacity:1;stroke-miterlimit:4"
       id="path367"
       inkscape:connector-curvature="0" />
    <path
       d="m 1505.2637,1034.7653 c -2.3482,3e-4 -4.2519,-1.9029 -4.2525,-4.2511 -3e-4,-2.3488 1.9038,-4.2528 4.2525,-4.2526 2.3483,6e-4 4.2512,1.9044 4.2512,4.2526 -6e-4,2.3476 -1.9035,4.2505 -4.2512,4.2511 z"
       style="fill:none;fill-rule:evenodd;stroke:#000000;stroke-width:5;stroke-linecap:butt;stroke-linejoin:round;stroke-dasharray:none;fill-opacity:1;stroke-opacity:1;stroke-miterlimit:4"
       id="path369"
       inkscape:connector-curvature="0" />
    <path
       d="m 1615.8141,1034.7653 c -2.3477,-6e-4 -4.2506,-1.9035 -4.2511,-4.2511 -3e-4,-2.3482 1.9029,-4.252 4.2511,-4.2526 2.3485,-2e-4 4.2525,1.9038 4.2525,4.2526 -6e-4,2.3482 -1.9043,4.2511 -4.2525,4.2511 z"
       style="fill:none;fill-rule:evenodd;stroke:#000000;stroke-width:5;stroke-linecap:butt;stroke-linejoin:round;stroke-dasharray:none;fill-opacity:1;stroke-opacity:1;stroke-miterlimit:4"
       id="path371"
       inkscape:connector-curvature="0" />
  </g>
</svg>
